<?xml version="1.0" encoding="UTF-8" standalone="no"?>
<!-- Created with Inkscape (http://www.inkscape.org/) -->

<svg
   width="113.742mm"
   height="278.09299mm"
   viewBox="0 0 113.742 278.09299"
   version="1.1"
   id="svg5"
   inkscape:version="1.1.2 (b8e25be833, 2022-02-05)"
   sodipodi:docname="desenho-1.svg"
   xmlns:inkscape="http://www.inkscape.org/namespaces/inkscape"
   xmlns:sodipodi="http://sodipodi.sourceforge.net/DTD/sodipodi-0.dtd"
   xmlns="http://www.w3.org/2000/svg"
   xmlns:svg="http://www.w3.org/2000/svg">
  <sodipodi:namedview
     id="namedview7"
     pagecolor="#ffffff"
     bordercolor="#999999"
     borderopacity="1"
     inkscape:pageshadow="0"
     inkscape:pageopacity="0"
     inkscape:pagecheckerboard="0"
     inkscape:document-units="mm"
     showgrid="false"
     inkscape:zoom="0.4338454"
     inkscape:cx="396.45459"
     inkscape:cy="500.17818"
     inkscape:window-width="1366"
     inkscape:window-height="705"
     inkscape:window-x="-8"
     inkscape:window-y="-8"
     inkscape:window-maximized="1"
     inkscape:current-layer="layer1" />
  <defs
     id="defs2" />
  <g
     inkscape:label="Camada 1"
     inkscape:groupmode="layer"
     id="layer1">
    <path
       id="path1047"
       style="fill:#000000;stroke-width:0.264583"
       d="m 57.781341,3.6611303 -0.731739,0.5410522 c -0.402516,0.297593 -1.453761,0.6886598 -2.336292,0.8686808 -0.958771,0.195572 -1.997985,0.6270249 -2.581754,1.0722859 -0.537345,0.409853 -1.523585,0.9314876 -2.191597,1.1591025 l -1.214395,0.4139282 0.09612,3.0737141 0.09612,3.073714 -0.68213,0.07958 c -0.541716,0.063 -0.83579,-0.141617 -1.425237,-0.992188 -0.693116,-1.000171 -0.82686,-1.071769 -2.011246,-1.071769 -1.129398,0 -1.336678,0.09455 -1.882571,0.859896 -0.851575,1.193916 -0.842119,3.710825 0.0186,4.919596 0.529855,0.744115 0.73715,0.835091 1.902209,0.835091 1.224835,0 1.353142,-0.06643 2.032434,-1.048514 0.541676,-0.783122 0.909071,-1.050834 1.452626,-1.058334 0.625684,-0.0086 0.727604,0.09549 0.727604,0.743107 0,0.414205 0.07753,1.842955 0.172082,3.175 l 0.172082,2.422075 -0.635103,-0.0098 C 48.323999,22.710448 47.895975,22.37747 47.399029,21.659015 46.782976,20.768359 46.532035,20.6105 45.728331,20.6105 c -1.23975,0 -1.869308,0.36107 -2.392619,1.373043 -0.53857,1.041477 -0.403045,3.559083 0.244946,4.548042 0.397785,0.6071 0.633367,0.693498 1.885675,0.693498 1.277641,0 1.490175,-0.08238 1.978689,-0.768428 0.30095,-0.422646 0.546737,-0.898896 0.546737,-1.058334 0,-0.159438 0.280459,-0.289905 0.623219,-0.289905 0.576331,0 0.636211,0.134306 0.792199,1.785938 0.09277,0.982266 0.169431,2.411016 0.170532,3.175001 0.0016,1.213299 -0.06541,1.389062 -0.527616,1.389062 -0.291042,0 -0.529167,-0.141155 -0.529167,-0.313677 0,-0.172521 -0.258752,-0.58924 -0.575159,-0.926041 -0.851093,-0.905949 -2.884628,-0.874002 -3.616833,0.05684 -1.120344,1.424289 -0.945229,4.193876 0.34158,5.402773 0.549251,0.51599 0.826198,0.585962 1.740463,0.439767 1.075971,-0.172056 2.347854,-1.218851 2.366264,-1.947686 0.0046,-0.181901 0.170982,-0.330729 0.369486,-0.330729 0.411154,0 0.697116,1.622859 0.697116,3.953764 0,1.363869 0.08318,1.579158 0.92139,2.391585 1.966328,1.905838 2.046531,2.873909 1.725993,20.774442 -0.427701,23.885078 -1.28616,66.286615 -1.478462,73.024995 l -0.173633,6.08542 -4.664832,0.0289 c -7.258393,0.045 -12.876056,1.09582 -16.438789,3.07475 -5.871469,3.26132 -9.041617,8.03967 -9.847978,14.84354 -0.398458,3.3621 -0.08263,6.5957 1.561661,15.98352 1.099494,6.27736 1.24092,7.52933 1.24902,11.04842 0.0091,3.94351 0.0031,3.98642 -0.997355,6.74688 -1.415621,3.90582 -3.235951,8.12662 -7.644495,17.72708 -4.3943579,9.56956 -5.455463,12.28167 -6.6776289,17.06563 -1.2127079,4.74694 -1.5525401,7.84377 -1.3875121,12.65142 0.114731,3.34241 0.2735305,4.52849 0.9436116,7.06003 1.848281,6.98275 4.4146554,11.61297 8.6144614,15.54169 6.457545,6.04073 17.007856,9.74921 30.987256,10.89131 v 0 c 3.950094,0.32287 16.821541,0.32981 20.689176,0.0114 20.26749,-1.66886 32.742846,-7.83704 38.576973,-19.07378 1.4969,-2.8831 2.89238,-7.03163 3.4587,-10.28051 0.5803,-3.32909 0.39125,-10.39297 -0.37362,-13.94489 -1.30339,-6.05264 -2.81996,-10.10644 -7.84706,-20.98011 -4.092824,-8.85279 -6.112738,-13.57404 -7.301368,-17.06562 -0.867619,-2.54853 -0.900065,-2.78693 -0.880565,-6.4823 0.01752,-3.32589 0.185195,-4.77883 1.257806,-10.91613 1.642398,-9.39775 1.957167,-12.6245 1.559075,-15.98352 -0.80636,-6.80387 -3.977034,-11.58222 -9.848492,-14.84353 -3.56248,-1.9788 -9.18014,-3.02975 -16.43724,-3.07475 l -4.663797,-0.0289 -0.173117,-5.95313 c -0.188751,-6.48191 -1.042387,-48.627296 -1.481563,-73.157282 -0.32049,-17.900507 -0.239805,-18.868612 1.726509,-20.774443 0.83825,-0.812427 0.920875,-1.027715 0.920875,-2.391584 0,-2.330905 0.286472,-3.953764 0.697632,-3.953764 0.198498,0 0.363968,0.148828 0.368969,0.330729 0.01841,0.728834 1.290294,1.775629 2.366264,1.947685 0.91426,0.146196 1.191718,0.07623 1.74098,-0.439766 1.286808,-1.208897 1.461928,-3.978484 0.341579,-5.402773 -0.42723,-0.543142 -0.75665,-0.669208 -1.747178,-0.669208 -1.253781,0 -2.44533,0.731403 -2.44533,1.5012 0,0.192913 -0.238117,0.350883 -0.529166,0.350883 -0.602581,0 -0.662599,-0.724088 -0.358119,-4.325835 0.16066,-1.900724 0.209121,-2.024166 0.79375,-2.024166 0.342439,0 0.622702,0.130467 0.622702,0.289905 0,0.159438 0.246303,0.635687 0.547253,1.058333 0.488509,0.686048 0.700532,0.768429 1.978174,0.768429 1.252299,0 1.487892,-0.0864 1.885672,-0.693498 0.648001,-0.988959 0.784034,-3.506566 0.245464,-4.548043 -0.523311,-1.011973 -1.152869,-1.373042 -2.392619,-1.373042 -0.803711,0 -1.055166,0.157858 -1.671217,1.048514 -0.47353,0.684591 -0.931553,1.051734 -1.320331,1.058334 -0.684271,0.01154 -0.695,-0.08939 -0.42323,-3.918107 0.16974,-2.391244 0.180615,-2.421639 0.859895,-2.41174 0.49869,0.0073 0.890053,0.30206 1.422652,1.07177 0.715171,1.033567 0.77113,1.059452 2.103231,0.981852 1.24963,-0.07279 1.415539,-0.159953 1.90686,-1.003556 0.748921,-1.285962 0.742135,-3.669747 -0.01344,-4.684986 -0.455131,-0.61154 -0.782243,-0.754868 -1.869654,-0.819588 -1.27653,-0.07597 -1.341017,-0.04429 -2.068605,1.005623 -0.597353,0.861975 -0.890747,1.06771 -1.433505,1.00459 L 66.64488,13.864156 66.74151,10.785791 66.83815,7.7074256 65.815472,7.3725624 C 64.743725,7.0206459 63.800326,6.5015548 62.985158,5.8155207 62.718392,5.5910127 61.767689,5.2580912 60.872624,5.0755142 59.97756,4.8929362 58.916113,4.4997755 58.513597,4.2021825 Z m 0.09147,160.6175797 c 3.061581,-0.02 6.093002,0.80015 8.620662,2.50114 0.920681,0.61957 1.743734,0.92679 2.840654,1.05989 5.239019,0.63573 10.412737,3.89862 13.441555,8.477 1.990773,3.00925 3.68754,7.77488 4.567682,12.83022 0.560819,3.22123 0.655331,15.13024 0.133842,16.846 -0.767871,2.52637 -3.189023,4.97611 -5.571754,5.6379 -1.477061,0.41025 -13.937094,0.3207 -15.315343,-0.11007 -1.489382,-0.46551 -3.208552,-1.76507 -4.10931,-3.10627 -1.242904,-1.85063 -1.524455,-3.3137 -1.524455,-7.92251 v -4.17236 l -2.182812,0.14573 c -7.42364,0.49501 -13.969881,-4.08656 -16.501835,-11.54865 -0.767051,-2.26063 -0.697476,-6.93018 0.141592,-9.49193 0.797401,-2.43452 2.667444,-5.33134 4.51032,-6.98665 3.027034,-2.71894 7.012884,-4.13364 10.949202,-4.15944 z m 13.224515,6.12986 c -0.55182,-0.0557 -0.320858,0.39405 0.408763,1.52291 1.653479,2.55826 2.282997,4.90169 2.280996,8.48734 -0.0013,2.26991 -0.127217,3.41229 -0.495578,4.49791 -1.509188,4.44785 -4.266313,7.77822 -8.083743,9.76426 l -2.184362,1.13637 0.09663,4.80229 c 0.08108,4.03237 0.174932,4.95077 0.584978,5.72833 0.882031,1.67261 2.022943,2.61773 3.864364,3.20084 0.364739,0.11552 3.639571,0.18653 7.277592,0.15813 5.59376,-0.0437 6.738117,-0.11911 7.414017,-0.48989 1.209399,-0.66346 2.259943,-1.81013 2.871144,-3.13366 0.508878,-1.10192 0.549185,-1.66371 0.545185,-7.54063 -0.0037,-4.89711 -0.111139,-6.9251 -0.468189,-8.86354 -1.908929,-10.36356 -5.746654,-16.22829 -12.212174,-18.66191 -0.955688,-0.35972 -1.568532,-0.57534 -1.899626,-0.60875 z M 38.202175,220.3709 h 19.579166 19.579167 v 3.70416 3.70417 h -3.706233 -3.706752 l -0.725019,1.04852 -0.725538,1.04799 H 57.781341 47.065716 l -0.725021,-1.04799 -0.72502,-1.04852 h -3.706751 -3.706749 v -3.70417 z m 77.617485,60.3715 c -0.002,0.003 -0.003,0.006 -0.002,0.013 0.0141,0.0846 0.0357,0.16772 0.061,0.24958 0.0274,-0.0594 0.0542,-0.11919 0.0822,-0.17827 -0.0519,-0.0111 -0.12662,-0.094 -0.14108,-0.0842 z" />
  </g>
</svg>
