<?xml version="1.0" encoding="UTF-8" standalone="no"?>
<!-- Created with Inkscape (http://www.inkscape.org/) -->

<svg
   width="91.196999mm"
   height="76.629997mm"
   viewBox="0 0 91.196999 76.629997"
   version="1.1"
   id="svg5"
   inkscape:version="1.1.2 (b8e25be833, 2022-02-05)"
   sodipodi:docname="meditation-animate.svg"
   xmlns:inkscape="http://www.inkscape.org/namespaces/inkscape"
   xmlns:sodipodi="http://sodipodi.sourceforge.net/DTD/sodipodi-0.dtd"
   xmlns="http://www.w3.org/2000/svg"
   xmlns:svg="http://www.w3.org/2000/svg">
  <sodipodi:namedview
     id="namedview7"
     pagecolor="#ffffff"
     bordercolor="#999999"
     borderopacity="1"
     inkscape:pageshadow="0"
     inkscape:pageopacity="0"
     inkscape:pagecheckerboard="0"
     inkscape:document-units="mm"
     showgrid="false"
     width="91.197mm"
     inkscape:zoom="0.4338454"
     inkscape:cx="235.10679"
     inkscape:cy="189.00742"
     inkscape:window-width="1366"
     inkscape:window-height="705"
     inkscape:window-x="-8"
     inkscape:window-y="-8"
     inkscape:window-maximized="1"
     inkscape:current-layer="layer1" />
  <defs
     id="defs2">
    <filter
       id="active"
       height="2">
      <feMorphology
         in="SourceAlpha"
         result="DILATED"
         operator="dilate"
         radius="2"
         id="feMorphology948" />
      <feFlood
         flood-color="#32DFEC"
         flood-opacity="1"
         result="PINK"
         id="feFlood950" />
      <feComposite
         in="PINK"
         in2="DILATED"
         operator="in"
         result="OUTLINE"
         id="feComposite952" />
      <feMerge
         id="feMerge958">
        <feMergeNode
           in="OUTLINE"
           id="feMergeNode954" />
        <feMergeNode
           in="SourceGraphic"
           id="feMergeNode956" />
      </feMerge>
    </filter>
    <filter
       id="hover"
       height="2">
      <feMorphology
         in="SourceAlpha"
         result="DILATED"
         operator="dilate"
         radius="2"
         id="feMorphology961" />
      <feFlood
         flood-color="#ff0000"
         flood-opacity="0.5"
         result="PINK"
         id="feFlood963" />
      <feComposite
         in="PINK"
         in2="DILATED"
         operator="in"
         result="OUTLINE"
         id="feComposite965" />
      <feMerge
         id="feMerge971">
        <feMergeNode
           in="OUTLINE"
           id="feMergeNode967" />
        <feMergeNode
           in="SourceGraphic"
           id="feMergeNode969" />
      </feMerge>
      <feColorMatrix
         type="matrix"
         values="0   0   0   0   0                0   1   0   0   0                0   0   0   0   0                0   0   0   1   0 "
         id="feColorMatrix973" />
    </filter>
  </defs>
  <g
     inkscape:label="Camada 1"
     inkscape:groupmode="layer"
     id="layer1">
    <g
       id="g1116"
       transform="matrix(0.26458333,0,0,0.26458333,-18.90774,-41.242008)">
      <g
         id="freepik--background-complete--inject-26"
         class="animable animator-hidden">
        <rect
           x="43.869999"
           y="59.18"
           width="120.53"
           height="212.72"
           style="fill:#e0e0e0"
           id="elwr8giwwmlk"
           class="animable" />
        <path
           d="M 164.9,272.4 H 43.37 V 58.68 H 164.9 Z m -120.53,-1 H 163.9 V 59.68 H 44.37 Z"
           style="fill:#e0e0e0"
           id="elapxumgvi96s"
           class="animable" />
        <path
           d="m 165.58,110.77 v -1.34 H 139.9 V 58 h -1.73 v 51.43 H 108 V 56.49 h -6.7 v 52.94 h -31 V 58 h -1.77 v 51.43 H 43.75 v 1.34 h 24.78 v 51.41 H 43.75 v 6.73 h 24.78 v 53.52 H 43.75 v 1.34 h 24.78 v 48.1 h 1.74 v -48.1 h 31 v 46.6 H 108 v -46.6 h 30.15 v 48.1 h 1.73 v -48.1 h 25.68 v -1.34 H 139.9 v -53.52 h 25.68 v -6.73 H 139.9 v -51.41 z m -95.31,0 h 31 v 51.41 h -31 z m 0,111.66 v -53.52 h 31 v 53.52 z m 67.9,0 H 108 v -53.52 h 30.15 z m 0,-60.25 H 108 v -51.41 h 30.15 z"
           style="fill:#fafafa"
           id="elw4xeyqqq3gs"
           class="animable" />
        <rect
           x="336.69"
           y="310.04001"
           width="7.1399999"
           height="28.389999"
           style="fill:#ebebeb"
           id="elygm9iqhbubn"
           class="animable" />
        <rect
           x="426.79999"
           y="310.04001"
           width="7.1399999"
           height="28.389999"
           style="fill:#ebebeb"
           id="elzkyt7kz06n"
           class="animable" />
        <rect
           x="384.17001"
           y="310.04001"
           width="7.1399999"
           height="28.389999"
           style="fill:#e0e0e0"
           id="elqmrde020ewo"
           class="animable" />
        <rect
           x="460.79999"
           y="310.04001"
           width="7.1399999"
           height="28.389999"
           style="fill:#e0e0e0"
           id="elqtc79g24lbf"
           class="animable" />
        <rect
           x="336.69"
           y="244.58"
           width="97.389999"
           height="65.459999"
           style="fill:#ebebeb"
           id="elakav5koz7lm"
           class="animable" />
        <rect
           x="434.07999"
           y="244.58"
           width="35.119999"
           height="65.459999"
           style="fill:#e0e0e0"
           id="elqbi9nraubtc"
           class="animable" />
        <path
           d="m 424.88,277.31 a 2.89,2.89 0 0 1 0,-0.37 c 0,-0.26 0,-0.61 0,-1.06 0,-0.95 0,-2.32 0,-4.09 0,-3.57 -0.05,-8.75 -0.08,-15.3 l 0.16,0.16 -78.39,0.1 0.26,-0.26 v 0 2.65 c 0,0.89 0,1.77 0,2.66 v 15.49 l -0.26,-0.26 55.92,0.12 16.47,0.07 h 4.44 1.16 0.41 -0.38 -1.12 -4.39 l -16.41,0.08 -56.1,0.11 h -0.25 v -10.34 c 0,-1.74 0,-3.49 0,-5.25 v -5.31 0 l 0.27,-0.26 78.39,0.1 H 425 v 0.16 c 0,6.59 -0.06,11.8 -0.08,15.39 0,1.76 0,3.11 0,4.06 0,0.44 0,0.78 0,1 0,0.22 -0.04,0.35 -0.04,0.35 z"
           style="fill:#e0e0e0"
           id="eltzfi9hjsjo"
           class="animable" />
        <path
           d="m 389.11,266.9 a 3.43,3.43 0 1 1 -3.43,-3.43 3.43,3.43 0 0 1 3.43,3.43 z"
           style="fill:#e0e0e0"
           id="elo3dg0o1cash"
           class="animable" />
        <path
           d="m 351.28,219.61 3.84,5.52 c 0,0 -8.64,2.4 -8.64,10.07 0,7.67 5.28,9.11 11,9.11 5.72,0 11.27,-1.68 11,-9.35 -0.27,-7.67 -7.44,-10.55 -7.44,-10.55 l 3.6,-4.8 z"
           style="fill:#f5f5f5"
           id="ell4i819doria"
           class="animable" />
        <path
           d="m 459.69,229.79 v 14.05 h -60.43 a 7,7 0 0 1 -7,-7 v 0 a 7,7 0 0 1 7,-7"
           style="fill:#e0e0e0"
           id="elvqm0cynb9r"
           class="animable" />
        <path
           d="m 437.46,232.73 h 22.24 v 8.16 h -22.24 a 1.75,1.75 0 0 1 -1.75,-1.75 v -4.67 a 1.75,1.75 0 0 1 1.75,-1.74 z"
           style="fill:#fafafa"
           id="elbc36qtp9u8s"
           class="animable" />
        <path
           d="m 459.69,216.29 v 14.05 h -60.43 a 7,7 0 0 1 -7,-7 v 0 a 7,7 0 0 1 7,-7 z"
           style="fill:#f5f5f5"
           id="el8i1zha0bl2x"
           class="animable" />
        <path
           d="m 437.46,219.23 h 22.24 v 8.16 h -22.24 a 1.75,1.75 0 0 1 -1.75,-1.75 V 221 a 1.75,1.75 0 0 1 1.75,-1.77 z"
           style="fill:#e0e0e0"
           id="els7dt560oaq"
           class="animable" />
        <path
           d="m 291.69,77.79 c 0.24,-0.23 1.89,0.95 4.05,3.39 a 37.62,37.62 0 0 1 3.44,4.57 45.89,45.89 0 0 1 3.31,6.19 47.12,47.12 0 0 1 2.26,6.65 38.55,38.55 0 0 1 1,5.64 c 0.3,3.25 0,5.26 -0.3,5.28 -0.78,0 -1.49,-7.81 -5.33,-16.53 -3.84,-8.72 -9.01,-14.66 -8.43,-15.19 z"
           style="fill:#ebebeb"
           id="elp2pul0nk7eo"
           class="animable" />
        <path
           d="m 308,116 c -0.34,0 -1.27,-4.25 -2.14,-11.3 -0.87,-7.05 -1.6,-16.84 -1.88,-27.66 -0.28,-10.82 -0.17,-20.6 0,-27.68 0.17,-7.08 0.55,-11.46 0.91,-11.46 0.36,0 0.68,4.38 0.93,11.45 0.25,7.07 0.43,16.85 0.72,27.62 0.29,10.77 0.71,20.51 1.12,27.56 0.41,7.05 0.72,11.47 0.34,11.47 z"
           style="fill:#ebebeb"
           id="elm337l2unhdk"
           class="animable" />
        <path
           d="m 323.78,54.55 c 0.34,0.19 -1,3.2 -2.81,8.22 -1.81,5.02 -4.06,12 -6.26,19.86 -2.2,7.86 -3.86,15 -4.88,20.26 -1.02,5.26 -1.44,8.5 -1.83,8.49 -0.39,-0.01 -0.6,-3.39 0,-8.77 a 137.21,137.21 0 0 1 4.19,-20.67 137.51,137.51 0 0 1 7.07,-19.87 c 2.27,-4.93 4.24,-7.69 4.52,-7.52 z"
           style="fill:#ebebeb"
           id="el3ql465mb1g4"
           class="animable" />
        <path
           d="m 287.69,107 v 8.61 A 18.37,18.37 0 0 0 306.06,134 v 0 a 18.37,18.37 0 0 0 18.38,-18.37 V 107 Z"
           style="fill:#e0e0e0"
           id="elps4q43oa7l"
           class="animable" />
        <path
           d="m 324.77,114.32 c 0,0.15 -8.3,0.26 -18.54,0.26 -10.24,0 -18.54,-0.11 -18.54,-0.26 0,-0.15 8.3,-0.26 18.54,-0.26 10.24,0 18.54,0.12 18.54,0.26 z"
           style="fill:#fafafa"
           id="el109i53kgtxbo"
           class="animable" />
        <path
           d="m 324.77,116.71 c 0,0.15 -8.3,0.26 -18.54,0.26 -10.24,0 -18.54,-0.11 -18.54,-0.26 0,-0.15 8.3,-0.26 18.54,-0.26 10.24,0 18.54,0.12 18.54,0.26 z"
           style="fill:#fafafa"
           id="el8n50wtn70pl"
           class="animable" />
        <rect
           x="263.14001"
           y="134.02"
           width="169.57001"
           height="9.8100004"
           style="fill:#ebebeb"
           id="elabhzirzc8xh"
           class="animable" />
        <rect
           x="295.29001"
           y="143.83"
           width="5.5900002"
           height="16.98"
           style="fill:#e0e0e0"
           id="eliozgwradw2o"
           class="animable" />
        <rect
           x="388.31"
           y="143.83"
           width="5.5900002"
           height="16.98"
           style="fill:#e0e0e0"
           id="elzlkrr72wybl"
           class="animable" />
        <polygon
           points="360.04,98.14 356.2,133.78 405.41,133.78 409.5,98.14 "
           style="fill:#ebebeb"
           id="ely8huvs6zhbm"
           class="animable" />
        <polygon
           points="362.06,100.7 358.32,131.89 402.74,131.89 406.34,100.7 "
           style="fill:#ffffff"
           id="el7rtg28xhli"
           class="animable" />
        <polygon
           points="369.54,105.94 367.24,126.64 395.27,126.64 396.71,105.94 "
           style="fill:#e0e0e0"
           id="elyi0yy0avf1"
           class="animable" />
        <polyline
           points="407.74 113.49 417.9 133.93 405.41 133.78 407.89 112.16"
           style="fill:#e0e0e0"
           id="elfv6dug5nh9i"
           class="animable" />
      </g>
      <g
         id="freepik--Carpet--inject-26"
         class="animable animator-active">
        <ellipse
           cx="242.03"
           cy="399.29999"
           rx="172.34"
           ry="46.599998"
           style="fill:#263238"
           id="el52hg9p4t66m"
           class="animable" />
      </g>
      <g
         id="freepik--Plants--inject-26"
         class="animable">
        <path
           d="m 339.39,193.83 c 0,0 -6.9,-4.33 -14.81,12.11 -7.91,16.44 -10.83,25.9 -10.83,25.9 0,0 -2.11,3.45 -4.5,1.28 -2.39,-2.17 -5.74,-8.41 -9.69,-7.18 -4.1,1.27 -5.35,5.91 -4.4,12.65 0.95,6.74 2.46,21.6 2.6,22.94 0.14,1.34 -0.58,3.29 -2.45,2.07 -1.87,-1.22 -12.7,-12.74 -17.86,-7.27 -5.16,5.47 0.55,23.83 1.14,25.85 0.59,2.02 0.21,2.89 -0.74,3.42 -0.95,0.53 -4.24,-3.69 -7.45,-6.84 -3.21,-3.15 -7.5,-6.24 -10.21,-2.84 -2.71,3.4 -3.29,17.29 10.43,39.51 l 7,9.88 12.15,-1 c 25.85,-3.63 36.17,-12.94 37.06,-17.2 0.89,-4.26 -4.22,-5.58 -8.7,-6 -4.48,-0.42 -9.82,-0.29 -10,-1.36 -0.18,-1.07 0.23,-1.92 2.16,-2.76 1.93,-0.84 19.7,-8.16 20.62,-15.63 0.92,-7.47 -14.88,-8.44 -17,-9.1 -2.12,-0.66 -1.07,-2.46 0,-3.2 1.07,-0.74 13.52,-9.07 19.31,-12.65 5.79,-3.58 8.56,-7.5 6.93,-11.47 -1.58,-3.82 -8.52,-2.42 -11.72,-2.87 -3.2,-0.45 -1.89,-4.29 -1.89,-4.29 0,0 5.41,-8.28 13,-24.86 7.59,-16.58 -0.34,-19.16 -0.34,-19.16"
           style="fill:#f0d36e"
           id="elkslqese0yv8"
           class="animable" />
        <path
           d="m 332.28,208.55 a 2.37,2.37 0 0 1 -0.14,0.36 l -0.44,1 c -0.41,0.93 -1,2.25 -1.76,3.94 -1.53,3.42 -3.78,8.35 -6.6,14.43 -5.62,12.17 -13.54,28.91 -22.35,47.36 -8.81,18.45 -16.72,35.19 -22.48,47.36 -2.84,6 -5.15,10.94 -6.75,14.36 l -1.85,3.9 -0.49,1 a 3.58,3.58 0 0 1 -0.18,0.34 1.32,1.32 0 0 1 0.13,-0.36 l 0.45,-1 1.75,-3.94 c 1.53,-3.42 3.79,-8.35 6.6,-14.44 5.62,-12.16 13.54,-28.9 22.35,-47.36 8.81,-18.46 16.72,-35.16 22.49,-47.28 2.84,-6 5.14,-10.95 6.75,-14.36 l 1.84,-3.91 0.5,-1 a 1.59,1.59 0 0 1 0.18,-0.4 z"
           style="fill:#263238"
           id="elydszdy4jku"
           class="animable" />
        <path
           d="m 303.9,234.86 a 19.66,19.66 0 0 1 1.11,3.07 c 0.6,1.92 1.36,4.6 2.14,7.57 0.78,2.97 1.41,5.52 1.94,7.62 a 25.23,25.23 0 0 1 0.75,3.17 16.25,16.25 0 0 1 -1.1,-3.07 c -0.59,-1.93 -1.32,-4.62 -2.09,-7.59 l -2,-7.6 a 21.11,21.11 0 0 1 -0.75,-3.17 z"
           style="fill:#263238"
           id="el2t1as0wlnz7"
           class="animable" />
        <path
           d="m 311,256.48 c 0,-0.13 5.4,-2 12.17,-4.07 6.77,-2.07 12.27,-3.72 12.32,-3.59 0.05,0.13 -5.41,2 -12.17,4.08 -6.76,2.08 -12.32,3.72 -12.32,3.58 z"
           style="fill:#263238"
           id="el8if7a09rtzm"
           class="animable" />
        <path
           d="m 296.15,284.21 a 24.54,24.54 0 0 1 3.33,-0.16 c 2,-0.05 4.88,-0.13 8,-0.33 3.12,-0.2 5.95,-0.45 8,-0.64 a 25,25 0 0 1 3.32,-0.25 18.45,18.45 0 0 1 -3.28,0.61 c -2,0.29 -4.86,0.61 -8,0.8 -3.14,0.19 -6,0.22 -8,0.18 a 18.34,18.34 0 0 1 -3.37,-0.21 z"
           style="fill:#263238"
           id="elckpn8gbc2zo"
           class="animable" />
        <path
           d="m 285.46,266.06 a 18.36,18.36 0 0 1 1.75,2.53 c 1,1.6 2.41,3.83 3.91,6.31 1.5,2.48 2.84,4.73 3.78,6.38 a 18.44,18.44 0 0 1 1.44,2.72 17.34,17.34 0 0 1 -1.75,-2.53 c -1,-1.6 -2.41,-3.83 -3.92,-6.3 -1.51,-2.47 -2.83,-4.74 -3.78,-6.39 a 17.13,17.13 0 0 1 -1.43,-2.72 z"
           style="fill:#263238"
           id="elx99xll7mpad"
           class="animable" />
        <path
           d="m 269.27,288.88 a 3.94,3.94 0 0 1 0.64,0.84 c 0.39,0.56 0.93,1.39 1.59,2.41 1.33,2 3.12,4.89 5.08,8 1.96,3.11 3.7,6 4.94,8.13 0.62,1.05 1.12,1.9 1.45,2.49 a 4.7,4.7 0 0 1 0.47,0.95 3.94,3.94 0 0 1 -0.64,-0.84 c -0.39,-0.56 -0.93,-1.39 -1.59,-2.41 -1.32,-2 -3.12,-4.88 -5.08,-8 -1.96,-3.12 -3.7,-6 -4.94,-8.13 -0.62,-1 -1.12,-1.9 -1.45,-2.49 a 4.42,4.42 0 0 1 -0.47,-0.95 z"
           style="fill:#263238"
           id="el966u8ljv23"
           class="animable" />
        <path
           d="m 283.26,311.1 a 5.07,5.07 0 0 1 1.12,-0.13 l 3.09,-0.2 c 2.6,-0.16 6.19,-0.39 10.15,-0.74 3.96,-0.35 7.53,-0.75 10.12,-1 l 3.07,-0.34 a 4.39,4.39 0 0 1 1.13,-0.07 4.45,4.45 0 0 1 -1.1,0.27 c -0.72,0.13 -1.76,0.31 -3,0.51 -2.58,0.39 -6.16,0.85 -10.13,1.2 -3.97,0.35 -7.57,0.52 -10.18,0.59 -1.3,0 -2.36,0 -3.09,0 a 4.39,4.39 0 0 1 -1.18,-0.09 z"
           style="fill:#263238"
           id="elpvzi4l406j"
           class="animable" />
        <g
           id="elrr2t87lf73f">
          <path
             d="m 339.39,193.83 c 0,0 -6.9,-4.33 -14.81,12.11 -7.91,16.44 -10.83,25.9 -10.83,25.9 0,0 -2.11,3.45 -4.5,1.28 -2.39,-2.17 -5.74,-8.41 -9.69,-7.18 -4.1,1.27 -5.35,5.91 -4.4,12.65 0.95,6.74 2.46,21.6 2.6,22.94 0.14,1.34 -0.58,3.29 -2.45,2.07 -1.87,-1.22 -12.7,-12.74 -17.86,-7.27 -5.16,5.47 0.55,23.83 1.14,25.85 0.59,2.02 0.21,2.89 -0.74,3.42 -0.95,0.53 -4.24,-3.69 -7.45,-6.84 -3.21,-3.15 -7.5,-6.24 -10.21,-2.84 -2.71,3.4 -3.29,17.29 10.43,39.51 l 7,9.88 12.15,-1 c 25.85,-3.63 36.17,-12.94 37.06,-17.2 0.89,-4.26 -4.22,-5.58 -8.7,-6 -4.48,-0.42 -9.82,-0.29 -10,-1.36 -0.18,-1.07 0.23,-1.92 2.16,-2.76 1.93,-0.84 19.7,-8.16 20.62,-15.63 0.92,-7.47 -14.88,-8.44 -17,-9.1 -2.12,-0.66 -1.07,-2.46 0,-3.2 1.07,-0.74 13.52,-9.07 19.31,-12.65 5.79,-3.58 8.56,-7.5 6.93,-11.47 -1.58,-3.82 -8.52,-2.42 -11.72,-2.87 -3.2,-0.45 -1.89,-4.29 -1.89,-4.29 0,0 5.41,-8.28 13,-24.86 7.59,-16.58 -0.34,-19.16 -0.34,-19.16"
             style="opacity:0.2"
             class="animable"
             id="path866" />
        </g>
        <path
           d="m 182.75,156.41 a 2.21,2.21 0 0 1 0.57,-0.12 3.68,3.68 0 0 1 1.68,0.25 6.2,6.2 0 0 1 2.28,1.59 13.5,13.5 0 0 1 2.13,3.19 52.94,52.94 0 0 1 3.13,10.16 c 1,4.07 2,8.75 2.74,14.07 v 0 c 0.32,0.77 0.91,1.65 1.77,1.69 a 2.1,2.1 0 0 0 1.21,-0.48 c 0.38,-0.27 0.76,-0.57 1.13,-0.88 a 23,23 0 0 1 2.4,-1.78 4,4 0 0 1 3,-0.71 4.13,4.13 0 0 1 2.41,2.14 6.54,6.54 0 0 1 0.53,3.27 c -0.12,2.25 -1,4.39 -1.65,6.59 -0.65,2.2 -1.39,4.47 -2.12,6.78 -0.36,1.16 -0.72,2.33 -1.09,3.51 -0.18,0.59 -0.37,1.18 -0.55,1.78 a 3.83,3.83 0 0 0 -0.22,0.87 1.82,1.82 0 0 0 0.12,0.81 c 0.21,0.5 0.85,0.39 1.37,0.09 l 1.68,-0.93 a 35.09,35.09 0 0 1 3.54,-1.72 12.16,12.16 0 0 1 3.91,-1 4.66,4.66 0 0 1 2.07,0.32 3.38,3.38 0 0 1 1.61,1.4 6.71,6.71 0 0 1 0.67,4.14 21,21 0 0 1 -0.87,4.14 50.59,50.59 0 0 1 -3.29,7.92 13.83,13.83 0 0 0 -0.9,1.93 1.29,1.29 0 0 0 0,0.89 1.35,1.35 0 0 0 0.28,0.36 c 0.06,0 0.11,0 0.28,0 a 9.36,9.36 0 0 0 1.84,-1.06 l 1.81,-1.27 a 23.61,23.61 0 0 1 3.88,-2.33 7.67,7.67 0 0 1 2.23,-0.66 2.94,2.94 0 0 1 2.32,0.62 3.36,3.36 0 0 1 1.12,2.13 9.57,9.57 0 0 1 0.11,1.19 c 0,0.39 0,0.78 -0.06,1.17 a 18.8,18.8 0 0 1 -1.11,4.55 38.4,38.4 0 0 1 -4.36,8.38 64.59,64.59 0 0 1 -6,7.54 46.25,46.25 0 0 1 -3.45,3.41 l -3.57,3.35 -0.11,0.1 h -0.14 l -0.66,-0.2 -4.72,-1.43 -2.34,-0.71 c -0.77,-0.26 -1.52,-0.59 -2.29,-0.88 a 72.11,72.11 0 0 1 -8.72,-4.19 41.19,41.19 0 0 1 -7.7,-5.59 20.6,20.6 0 0 1 -3.07,-3.59 8.71,8.71 0 0 1 -1,-2.16 3.19,3.19 0 0 1 0.17,-2.42 3.13,3.13 0 0 1 2,-1.4 8.83,8.83 0 0 1 2.33,-0.27 28.16,28.16 0 0 1 4.52,0.48 l 2.2,0.36 c 0.37,0.05 0.73,0.1 1.09,0.12 a 2.31,2.31 0 0 0 1,0 c 0.07,0 0,0 0.06,-0.05 a 1.11,1.11 0 0 0 0.07,-0.22 0.93,0.93 0 0 0 0,-0.44 2,2 0 0 0 -0.56,-0.78 c -0.51,-0.45 -1.16,-0.85 -1.73,-1.29 a 54.92,54.92 0 0 1 -6.59,-5.61 21.64,21.64 0 0 1 -2.69,-3.28 6.76,6.76 0 0 1 -1.34,-4 3.25,3.25 0 0 1 0.86,-2 4.72,4.72 0 0 1 1.78,-1.14 13.3,13.3 0 0 1 4,-0.73 37.07,37.07 0 0 1 4,0.06 c 0.65,0 1.3,0.09 1.93,0.1 a 1.33,1.33 0 0 0 0.79,-0.18 0.59,0.59 0 0 0 0.2,-0.63 2.85,2.85 0 0 0 -1,-1.44 l -1.33,-1.33 -2.6,-2.63 -5,-5.07 a 33.19,33.19 0 0 1 -4.57,-5.1 7,7 0 0 1 -1.13,-3.13 4,4 0 0 1 1.12,-3 4.06,4.06 0 0 1 3.07,-0.68 23,23 0 0 1 3,0.57 c 0.47,0.11 0.95,0.22 1.41,0.29 a 2.3,2.3 0 0 0 1.31,-0.05 c 0.79,-0.36 0.91,-1.45 0.83,-2.27 v 0 c -1.87,-5 -3.14,-9.6 -4.21,-13.61 a 55,55 0 0 1 -2.07,-10.37 c -0.17,-2.88 0.5,-5.16 1.53,-6.28 a 3.4,3.4 0 0 1 1.38,-1 1.72,1.72 0 0 1 0.55,-0.14 2.57,2.57 0 0 0 -0.54,0.18 3.49,3.49 0 0 0 -1.32,1 c -1,1.11 -1.63,3.36 -1.43,6.21 a 54.73,54.73 0 0 0 2.14,10.31 c 1.09,4 2.39,8.6 4.26,13.57 v 0 0 a 4.12,4.12 0 0 1 -0.08,1.44 1.76,1.76 0 0 1 -0.92,1.18 2.66,2.66 0 0 1 -1.5,0.08 c -0.48,-0.08 -1,-0.19 -1.44,-0.29 a 23.35,23.35 0 0 0 -2.91,-0.55 3.7,3.7 0 0 0 -2.79,0.6 3.61,3.61 0 0 0 -1,2.75 6.59,6.59 0 0 0 1.09,2.95 32.32,32.32 0 0 0 4.51,5 l 5.06,5.07 2.61,2.62 1.33,1.33 a 3.29,3.29 0 0 1 1.11,1.66 1,1 0 0 1 -0.38,1.07 1.77,1.77 0 0 1 -1.05,0.26 c -0.66,0 -1.29,-0.07 -1.94,-0.1 -1.29,-0.07 -2.6,-0.11 -3.91,-0.05 a 12.91,12.91 0 0 0 -3.85,0.71 4.3,4.3 0 0 0 -1.61,1 2.79,2.79 0 0 0 -0.73,1.71 6.29,6.29 0 0 0 1.26,3.71 21.22,21.22 0 0 0 2.65,3.21 53.23,53.23 0 0 0 6.53,5.55 c 0.58,0.44 1.18,0.81 1.77,1.32 a 2.27,2.27 0 0 1 0.7,1 1.48,1.48 0 0 1 0,0.66 2.81,2.81 0 0 1 -0.08,0.31 0.67,0.67 0 0 1 -0.31,0.33 2.78,2.78 0 0 1 -1.22,0.1 c -0.39,0 -0.76,-0.08 -1.13,-0.13 l -2.21,-0.35 a 27.66,27.66 0 0 0 -4.44,-0.48 8.87,8.87 0 0 0 -2.19,0.25 2.68,2.68 0 0 0 -1.67,1.16 c -0.67,1.28 0.06,2.82 0.83,4.06 a 19.1,19.1 0 0 0 3,3.49 40.33,40.33 0 0 0 7.61,5.52 70.22,70.22 0 0 0 8.65,4.15 c 0.76,0.29 1.5,0.62 2.27,0.88 l 2.33,0.7 4.71,1.43 0.66,0.2 -0.25,0.06 3.55,-3.34 a 44.18,44.18 0 0 0 3.44,-3.4 64.51,64.51 0 0 0 5.9,-7.47 37.6,37.6 0 0 0 4.31,-8.26 18.15,18.15 0 0 0 1.08,-4.43 c 0,-0.37 0,-0.75 0.06,-1.12 a 9.77,9.77 0 0 0 -0.1,-1.1 2.87,2.87 0 0 0 -0.95,-1.83 2.45,2.45 0 0 0 -1.94,-0.51 7.4,7.4 0 0 0 -2.08,0.61 24,24 0 0 0 -3.79,2.29 l -1.88,1.23 a 9.07,9.07 0 0 1 -2,1.12 0.92,0.92 0 0 1 -0.35,0 c -0.1,0 -0.35,-0.1 -0.4,-0.16 a 1.77,1.77 0 0 1 -0.39,-0.5 1.72,1.72 0 0 1 -0.05,-1.24 13.45,13.45 0 0 1 0.94,-2 51.37,51.37 0 0 0 3.26,-7.84 20.51,20.51 0 0 0 0.86,-4 6.38,6.38 0 0 0 -0.59,-3.86 3.41,3.41 0 0 0 -3.27,-1.51 12.1,12.1 0 0 0 -3.77,1 34.94,34.94 0 0 0 -3.48,1.69 l -1.7,0.93 a 2.14,2.14 0 0 1 -1,0.3 1,1 0 0 1 -1,-0.59 2.66,2.66 0 0 1 0.07,-2 c 0.19,-0.6 0.38,-1.19 0.56,-1.78 q 0.56,-1.78 1.11,-3.51 1.08,-3.48 2.13,-6.79 c 0.65,-2.21 1.53,-4.31 1.65,-6.49 a 6.15,6.15 0 0 0 -0.48,-3.08 3.8,3.8 0 0 0 -2.17,-2 3.72,3.72 0 0 0 -2.77,0.66 22.51,22.51 0 0 0 -2.36,1.75 c -0.38,0.3 -0.76,0.6 -1.16,0.89 a 2.46,2.46 0 0 1 -1.41,0.53 1.91,1.91 0 0 1 -1.32,-0.69 4.11,4.11 0 0 1 -0.74,-1.22 v 0 0 c -0.7,-5.3 -1.73,-10 -2.67,-14.05 a 52.48,52.48 0 0 0 -3.05,-10.14 13,13 0 0 0 -2.06,-3.18 6.21,6.21 0 0 0 -2.22,-1.6 3.66,3.66 0 0 0 -2.16,-0.23 z"
           style="fill:#263238"
           id="elbzmi5ebzm39"
           class="animable" />
        <path
           d="m 185.49,167.34 a 0.9,0.9 0 0 1 0.09,0.25 l 0.22,0.74 c 0.2,0.7 0.46,1.65 0.8,2.87 0.68,2.49 1.64,6.1 2.8,10.57 2.31,8.94 5.4,21.33 8.74,35 l 8.61,35.05 c 1.1,4.46 2,8.07 2.63,10.62 0.3,1.22 0.53,2.19 0.7,2.89 0.07,0.31 0.13,0.55 0.17,0.75 a 0.78,0.78 0 0 1 0,0.27 1.12,1.12 0 0 1 -0.09,-0.25 l -0.22,-0.74 c -0.19,-0.7 -0.46,-1.66 -0.8,-2.87 -0.68,-2.49 -1.63,-6.1 -2.79,-10.57 -2.32,-9 -5.4,-21.33 -8.75,-35 -3.35,-13.67 -6.39,-26 -8.6,-35 -1.11,-4.45 -2,-8.06 -2.64,-10.61 -0.29,-1.23 -0.53,-2.19 -0.7,-2.89 -0.07,-0.31 -0.12,-0.56 -0.17,-0.76 a 1.27,1.27 0 0 1 0,-0.32 z"
           style="fill:#263238"
           id="el9lqr5cfj28a"
           class="animable" />
        <path
           d="m 182,193.48 a 8.84,8.84 0 0 1 1.94,1.15 c 1.16,0.77 2.73,1.9 4.42,3.19 1.69,1.29 3.2,2.47 4.29,3.33 a 12.31,12.31 0 0 1 1.73,1.46 8.36,8.36 0 0 1 -2,-1.16 c -1.15,-0.79 -2.7,-1.93 -4.39,-3.22 l -4.31,-3.3 A 10.07,10.07 0 0 1 182,193.48 Z"
           style="fill:#263238"
           id="elkc3ou3rt4pe"
           class="animable" />
        <path
           d="m 195,202.24 a 71.72,71.72 0 0 1 4.55,-7.34 71.44,71.44 0 0 1 5,-7.05 74.33,74.33 0 0 1 -4.55,7.34 73,73 0 0 1 -5,7.05 z"
           style="fill:#263238"
           id="elwpa1ibxur6"
           class="animable" />
        <path
           d="m 199.21,223.47 c -0.09,-0.13 2.58,-2.25 5.69,-5.07 3.11,-2.82 5.49,-5.26 5.61,-5.16 a 8.67,8.67 0 0 1 -1.42,1.74 c -0.93,1 -2.27,2.39 -3.84,3.8 -1.57,1.41 -3.06,2.62 -4.17,3.45 a 9,9 0 0 1 -1.87,1.24 z"
           style="fill:#263238"
           id="elxteem4zmil"
           class="animable" />
        <path
           d="m 185.76,218.1 a 8.87,8.87 0 0 1 2,0.59 c 1.24,0.42 2.93,1 4.79,1.76 1.86,0.76 3.53,1.38 4.74,1.9 a 8.12,8.12 0 0 1 1.9,0.93 9.73,9.73 0 0 1 -2,-0.59 c -1.23,-0.42 -2.93,-1 -4.79,-1.76 -1.86,-0.76 -3.53,-1.39 -4.73,-1.9 a 8.12,8.12 0 0 1 -1.91,-0.93 z"
           style="fill:#263238"
           id="elt0vxib45ni"
           class="animable" />
        <path
           d="m 187.12,237.24 a 14.52,14.52 0 0 1 2.6,0.78 c 1.58,0.54 3.76,1.32 6.15,2.21 2.39,0.89 4.54,1.73 6.09,2.36 a 13.58,13.58 0 0 1 2.47,1.12 15.65,15.65 0 0 1 -2.6,-0.78 c -1.58,-0.54 -3.75,-1.32 -6.15,-2.21 -2.4,-0.89 -4.54,-1.73 -6.09,-2.36 a 13.58,13.58 0 0 1 -2.47,-1.12 z"
           style="fill:#263238"
           id="elak241825ihu"
           class="animable" />
        <path
           d="m 204.06,243.44 a 16.21,16.21 0 0 1 2,-2 c 1.29,-1.18 3.07,-2.81 5,-4.66 1.93,-1.85 3.64,-3.55 4.88,-4.79 a 17.16,17.16 0 0 1 2.06,-1.94 13.1,13.1 0 0 1 -1.8,2.2 c -1.17,1.3 -2.85,3.05 -4.78,4.91 -1.93,1.86 -3.76,3.44 -5.11,4.56 a 14.52,14.52 0 0 1 -2.25,1.72 z"
           style="fill:#263238"
           id="el0mvcqdh60via"
           class="animable" />
        <path
           d="M 213,325.12 C 227.61,311 227.88,289 224.12,269.89 c -0.63,-3.19 -0.82,-6.63 -2.8,-9.19 -1.98,-2.56 -5.85,-3.91 -8.5,-2.1 -2.2,1.51 -2.79,4.45 -3.75,6.95 a 19,19 0 0 1 -6.35,8.4 c -1.87,1.39 -4.29,2.45 -6.49,1.66 -3,-1.08 -3.95,-4.84 -4.45,-8 q -1.4,-8.93 -2.78,-17.84 c -0.5,-3.19 -1,-6.45 -2.5,-9.32 -1.5,-2.87 -4.12,-5.32 -7.29,-5.67 -3.17,-0.35 -6.64,2 -6.77,5.22 a 28.62,28.62 0 0 0 0.55,4 c 0.12,1.34 -0.26,2.9 -1.45,3.48 -1.19,0.58 -2.64,-0.12 -3.74,-0.9 -3.81,-2.68 -6.72,-6.47 -9.47,-10.25 -2.75,-3.78 -5.47,-7.68 -9,-10.71 -3.53,-3.03 -8.13,-5.14 -12.74,-4.66 -4.61,0.48 -9,4.09 -9.44,8.76 -0.44,4.67 2.93,8.82 6.37,12 a 72.17,72.17 0 0 0 17.11,11.72 6,6 0 0 1 2.91,2.26 c 1,2 -0.64,4.45 -2.62,5.49 -2.25,1.18 -4.87,1.35 -7.31,2.05 -2.44,0.7 -5,2.22 -5.51,4.73 -0.78,3.47 2.5,6.44 5.54,8.24 a 61.88,61.88 0 0 0 19.73,7.49 c 2.49,0.48 5.08,0.83 7.23,2.17 2.15,1.34 3.77,4 3,6.45 -0.77,2.45 -3.6,3.63 -6.13,3.57 -2.53,-0.06 -4.94,-1 -7.42,-1.54 -4.65,-0.94 -10.26,0.28 -12.45,4.52 a 10.19,10.19 0 0 0 0.37,9.09 23.48,23.48 0 0 0 6.11,7.1 62.1,62.1 0 0 0 29.15,14.15 c 10.73,1.88 20.3,1.3 29.8,-4"
           style="fill:#455a64"
           id="elftie4bqwddm"
           class="animable" />
        <path
           d="m 131,224.55 a 2.27,2.27 0 0 0 0.36,0.25 l 1.09,0.69 c 0.95,0.61 2.36,1.5 4.14,2.69 a 121.65,121.65 0 0 1 14.3,11.17 c 2.85,2.57 5.86,5.51 9,8.73 3.14,3.22 6.53,6.7 9.93,10.48 a 147.84,147.84 0 0 1 10.07,12.35 c 1.62,2.24 3.13,4.61 4.67,7 1.54,2.39 3.09,4.87 4.66,7.36 a 296.32,296.32 0 0 1 16.34,28.83 145.36,145.36 0 0 1 9.55,25.29 105.1,105.1 0 0 1 3.21,18 c 0.18,2.15 0.29,3.82 0.32,5 0,0.54 0,1 0.05,1.29 a 3,3 0 0 0 0,0.44 2.5,2.5 0 0 0 0,-0.44 c 0,-0.32 0,-0.75 0,-1.29 0,-1.14 -0.06,-2.82 -0.21,-5 a 99.77,99.77 0 0 0 -3,-18 141.94,141.94 0 0 0 -9.46,-25.43 A 289.43,289.43 0 0 0 189.77,285 q -2.36,-3.74 -4.66,-7.36 c -1.54,-2.42 -3.07,-4.81 -4.7,-7.05 a 145.62,145.62 0 0 0 -10.14,-12.38 c -3.42,-3.78 -6.8,-7.24 -10,-10.46 -3.2,-3.22 -6.22,-6.14 -9.1,-8.7 a 114.17,114.17 0 0 0 -14.46,-11 c -1.8,-1.17 -3.23,-2 -4.2,-2.6 l -1.12,-0.64 A 2.06,2.06 0 0 0 131,224.55 Z"
           style="fill:#263238"
           id="eliodxmutqdn"
           class="animable" />
        <path
           d="m 180.24,270.57 a 6.58,6.58 0 0 0 0.09,-1.41 c 0,-0.91 0,-2.22 0,-3.85 -0.06,-3.24 -0.3,-7.72 -0.59,-12.66 -0.29,-4.94 -0.46,-9.42 -0.47,-12.66 0,-1.61 0,-2.93 0,-3.83 a 6.73,6.73 0 0 0 0,-1.41 6.06,6.06 0 0 0 -0.19,1.4 c -0.08,0.9 -0.15,2.22 -0.19,3.84 -0.1,3.25 0,7.74 0.3,12.69 0.3,4.95 0.56,9.28 0.76,12.65 0.08,1.52 0.15,2.8 0.21,3.83 a 5.76,5.76 0 0 0 0.08,1.41 z"
           style="fill:#263238"
           id="el9iztb3y2grs"
           class="animable" />
        <path
           d="m 138,269.55 a 8.43,8.43 0 0 0 1.67,-0.07 c 1.07,-0.07 2.61,-0.19 4.52,-0.28 3.82,-0.2 9.1,-0.3 14.94,-0.15 5.84,0.15 11.11,0.53 14.92,0.91 1.91,0.17 3.45,0.36 4.51,0.48 a 9.36,9.36 0 0 0 1.67,0.13 9.46,9.46 0 0 0 -1.63,-0.37 c -1.06,-0.19 -2.6,-0.43 -4.5,-0.66 -3.81,-0.49 -9.1,-0.93 -15,-1.09 a 144,144 0 0 0 -15,0.33 c -1.91,0.14 -3.45,0.32 -4.52,0.47 a 9.85,9.85 0 0 0 -1.58,0.3 z"
           style="fill:#263238"
           id="el0vl5vgwedrri"
           class="animable" />
        <path
           d="m 205.47,313.22 a 2.1,2.1 0 0 0 0.2,-0.55 c 0.12,-0.43 0.28,-1 0.46,-1.59 0.39,-1.39 0.91,-3.42 1.52,-5.92 1.21,-5 2.68,-12 4.19,-19.72 1.51,-7.72 2.9,-14.72 4,-19.75 0.55,-2.45 1,-4.46 1.33,-6 0.14,-0.65 0.26,-1.18 0.36,-1.62 a 2.23,2.23 0 0 0 0.08,-0.58 2.1,2.1 0 0 0 -0.2,0.55 c -0.12,0.43 -0.28,0.95 -0.46,1.59 -0.39,1.39 -0.91,3.41 -1.52,5.92 -1.21,5 -2.68,12 -4.19,19.73 -1.51,7.73 -2.9,14.71 -4,19.74 -0.55,2.45 -1,4.46 -1.33,6 -0.14,0.65 -0.26,1.18 -0.36,1.62 a 2.23,2.23 0 0 0 -0.08,0.58 z"
           style="fill:#263238"
           id="eltckt68yckgm"
           class="animable" />
        <path
           d="m 148.17,304.49 a 2,2 0 0 0 0.57,0.14 l 1.67,0.27 6.14,1 c 5.18,0.8 12.33,2 20.22,3.3 7.89,1.3 15.06,2.44 20.26,3.13 2.6,0.35 4.71,0.61 6.17,0.76 l 1.68,0.16 a 2.41,2.41 0 0 0 0.59,0 2.27,2.27 0 0 0 -0.58,-0.14 l -1.66,-0.27 -6.14,-0.95 c -5.18,-0.79 -12.33,-2 -20.23,-3.3 -7.9,-1.3 -15.05,-2.44 -20.25,-3.13 -2.6,-0.35 -4.71,-0.61 -6.17,-0.76 l -1.68,-0.16 a 2.39,2.39 0 0 0 -0.59,-0.05 z"
           style="fill:#263238"
           id="el5m6obu6tryv"
           class="animable" />
      </g>
      <g
         id="freepik--Character--inject-26"
         class="animable">
        <path
           d="m 341.2,384.09 a 10.49,10.49 0 0 0 -1.79,-0.35 L 274,356.3 h -65.08 l -64.14,25.34 c -6.51,2.17 -15.8,14.87 -10.53,30.05 0.14,0.43 0.3,0.84 0.46,1.24 4.21,10.56 15.91,16.07 26.89,13.07 8.86,-2.36 21.59,-5.83 34.7,-9.42 h 1.47 l 40.8,-11.58 34.75,9.57 v 0 c 18.15,5 38.49,10.55 51.05,13.91 11,2.93 22.69,-2.56 26.9,-13.12 0.16,-0.4 0.31,-0.81 0.46,-1.23 C 357,399 347.71,386.25 341.2,384.09 Z"
           style="fill:#455a64"
           id="el4xa3p9qjqb9"
           class="animable" />
        <path
           d="m 238.07,405.15 c 0,0 0.07,0 0.22,-0.09 l 0.66,-0.2 2.59,-0.76 9.77,-2.78 -0.11,0.19 c -1.68,-6.19 -3.93,-14.42 -6.52,-23.93 l 0.23,0.17 h -6.7 c -2.31,0 -4.66,0.21 -7.08,0.31 l -15.06,0.83 c -18.6,1.08 -35.42,2.33 -47.59,3.32 l -14.41,1.19 -3.92,0.32 -1,0.07 h -0.34 a 1.32,1.32 0 0 1 0.34,-0.06 l 1,-0.12 3.91,-0.42 c 3.4,-0.34 8.32,-0.82 14.4,-1.36 12.16,-1.08 29,-2.39 47.59,-3.47 l 15.07,-0.81 c 2.41,-0.1 4.78,-0.27 7.09,-0.3 h 6.89 v 0.18 c 2.53,9.52 4.72,17.77 6.36,24 v 0.15 h -0.15 l -9.81,2.64 -2.61,0.68 -0.67,0.17 z"
           style="fill:#263238"
           id="eleclplzjbpfj"
           class="animable" />
        <path
           d="m 216.87,378.36 a 14.06,14.06 0 0 1 -3.84,-2.55 13.72,13.72 0 0 1 -3.2,-3.33 39.35,39.35 0 0 1 3.53,2.93 36.71,36.71 0 0 1 3.51,2.95 z"
           style="fill:#263238"
           id="elejsbnsko4xd"
           class="animable" />
        <path
           d="m 333.49,386.45 a 5.56,5.56 0 0 1 -0.9,0 l -2.56,-0.15 -9.43,-0.65 -31.1,-2.09 -31.11,-1.88 -9.39,-0.58 -2.57,-0.17 a 5.86,5.86 0 0 1 -0.89,-0.1 7.72,7.72 0 0 1 0.9,0 l 2.56,0.08 9.45,0.39 c 8,0.37 19,1 31.13,1.73 12.13,0.73 23.14,1.6 31.09,2.25 l 9.41,0.81 2.56,0.25 a 5.21,5.21 0 0 1 0.85,0.11 z"
           style="fill:#263238"
           id="elql4f00tj1t7"
           class="animable" />
        <path
           d="m 335.22,392.94 a 25.6,25.6 0 0 0 -0.74,-3.08 27.34,27.34 0 0 0 -1.48,-2.76 4.55,4.55 0 0 1 2,2.58 4.49,4.49 0 0 1 0.22,3.26 z"
           style="fill:#263238"
           id="elpf4k5igx0r"
           class="animable" />
        <path
           d="m 239.15,385.2 a 5.92,5.92 0 0 1 5.76,-1.47 c 0,0.15 -1.37,0 -2.95,0.47 -1.58,0.47 -2.72,1.13 -2.81,1 z"
           style="fill:#263238"
           id="elalb07tsqhen"
           class="animable" />
        <path
           d="m 240.92,389.33 a 7.21,7.21 0 0 1 2.65,-0.57 7,7 0 0 1 2.72,-0.06 7.21,7.21 0 0 1 -2.65,0.57 7,7 0 0 1 -2.72,0.06 z"
           style="fill:#263238"
           id="elyb3bs22gzpb"
           class="animable" />
        <path
           d="m 241.72,394.13 c 0,-0.15 1.45,-0.19 3.14,-0.69 1.69,-0.5 2.95,-1.22 3,-1.1 a 7.39,7.39 0 0 1 -6.17,1.79 z"
           style="fill:#263238"
           id="elr839irae4o"
           class="animable" />
        <path
           d="m 243.31,399.3 c 0,-0.15 1.39,-0.27 3,-0.87 1.61,-0.6 2.72,-1.42 2.81,-1.3 a 5,5 0 0 1 -2.62,1.79 5.1,5.1 0 0 1 -3.19,0.38 z"
           style="fill:#263238"
           id="elb5udhfcefpa"
           class="animable" />
        <path
           d="m 273.13,375.88 a 22.81,22.81 0 0 1 -2.2,3 24.51,24.51 0 0 1 -2.26,3 14.68,14.68 0 0 1 4.46,-6 z"
           style="fill:#263238"
           id="el4a8hri3unlo"
           class="animable" />
        <path
           d="m 401.33,313.81 c -1.56,0.09 -13.53,2.09 -13.53,2.09 14.87,-4 15.38,-5.7 15,-6.78 -0.38,-1.08 -13.89,2.65 -13.89,2.65 a 12.7,12.7 0 0 0 1.62,-5.06 c 0.35,-4.35 -4.77,-8.31 -6.38,-7.72 -1.61,0.59 -0.95,2.69 -0.95,2.69 4.75,2.45 4,8.2 0,9.93 -4,1.73 -6.15,-3.28 -3.84,-5.39 5.07,-4.63 2,-5.54 2,-5.54 l -11.25,10 C 370,310.73 361,313 361,313 v 0 l -38.49,7.67 -15.72,-23 -16.5,14.83 c 0,0 3,3.55 16.06,21.21 a 20.7,20.7 0 0 0 22.6,7.58 l 38.29,-11.52 0.07,0.18 v -0.13 l 21.3,-5.46 c 0,0 6.86,-2 8.47,-2.43 2.13,-0.6 2,-2.24 0.26,-2.29 -0.65,0 -8.64,0.26 -8.64,0.26 l 11.93,-3.29 c 3.71,-1.04 2.21,-2.87 0.7,-2.8 z"
           style="fill:#ffbe9d"
           id="eli6bk02uc0b"
           class="animable" />
        <path
           d="m 185.82,287.93 -15.71,23 -38.49,-7.68 c 0,0 -9,-2.23 -9.2,-2.3 l -11.25,-10 c 0,0 -3,0.91 2,5.54 2.31,2.11 0.12,7.12 -3.84,5.39 -3.96,-1.73 -4.7,-7.47 0,-9.93 0,0 0.66,-2.09 -1,-2.68 -1.66,-0.59 -6.73,3.36 -6.38,7.71 a 12.71,12.71 0 0 0 1.62,5.07 c 0,0 -13.54,-3.74 -13.89,-2.66 -0.35,1.08 0.16,2.82 15,6.78 0,0 -12,-2 -13.53,-2.08 -1.53,-0.08 -3,1.75 0.74,2.79 l 12.11,3.34 c 0,0 -8,-0.27 -8.64,-0.25 -1.7,0 -1.87,1.68 0.26,2.28 l 8.47,2.43 21.3,5.47 v 0.13 l 0.07,-0.19 38.29,11.53 A 20.72,20.72 0 0 0 186.3,324 c 13.08,-17.66 16.06,-21.21 16.06,-21.21 z"
           style="fill:#ffbe9d"
           id="elud1idxu09g"
           class="animable" />
        <path
           d="m 278.07,357.79 -6.47,-29 c 0.33,-4.05 5,-29.65 5.58,-31.17 l 21.06,30.67 24.6,-10.35 c 0,0 -20.9,-35 -30,-48.11 -11.18,-16.05 -33,-17.77 -33,-17.77 l -28.12,0.38 c 0,0 -19.64,-4.36 -39.35,22.11 l -22.61,35.67 19.42,9.88 a 4.38,4.38 0 0 0 5.49,-1.07 l 15.95,-19.44 4.84,27.41 -6.73,23.26 c 0,0 -6.14,0.81 -5,8.29 v 0 c 0,0 20,9.4 38.86,8.24 18.86,-1.16 35.48,-9 35.48,-9 z"
           style="fill:#f0d36e"
           id="elbfq2u2bu8k"
           class="animable" />
        <path
           d="m 267.58,310.56 a 1.44,1.44 0 0 1 -0.12,0.48 c -0.1,0.3 -0.24,0.75 -0.47,1.32 a 33.16,33.16 0 0 1 -2.25,4.63 35.9,35.9 0 0 1 -27.62,17.74 32.46,32.46 0 0 1 -5.15,0.12 c -0.61,0 -1.08,-0.1 -1.39,-0.13 a 1.53,1.53 0 0 1 -0.49,-0.08 18.43,18.43 0 0 1 1.89,0 39.14,39.14 0 0 0 5.1,-0.28 36.82,36.82 0 0 0 27.35,-17.56 38.19,38.19 0 0 0 2.37,-4.52 17.39,17.39 0 0 1 0.78,-1.72 z"
           style="fill:#263238"
           id="elqp8ai59j59f"
           class="animable" />
        <path
           d="m 301.16,327.46 c -0.11,0.09 -0.89,-0.71 -1.53,-1.92 a 4.39,4.39 0 0 1 -0.74,-2.35 c 0.14,-0.05 0.58,0.94 1.2,2.1 a 9.3,9.3 0 0 1 1.07,2.17 z"
           style="fill:#263238"
           id="el0maldbozgohd"
           class="animable" />
        <path
           d="m 306.15,325.15 c -0.13,0.06 -0.63,-0.85 -1.23,-1.95 a 6.7,6.7 0 0 1 -1,-2.11 c 0.11,-0.08 0.81,0.72 1.43,1.86 a 4.39,4.39 0 0 1 0.8,2.2 z"
           style="fill:#263238"
           id="elk3yxw2wkup"
           class="animable" />
        <path
           d="m 311.92,322.1 c -0.11,0.08 -0.82,-0.76 -1.57,-1.87 a 5.84,5.84 0 0 1 -1.14,-2.16 c 0.12,-0.08 0.83,0.76 1.57,1.87 a 5.84,5.84 0 0 1 1.14,2.16 z"
           style="fill:#263238"
           id="elpssnp02t9ch"
           class="animable" />
        <path
           d="m 317.6,319.29 c -0.14,0 -0.55,-0.81 -1.08,-1.85 -0.53,-1.04 -1,-1.86 -0.88,-1.95 0.12,-0.09 0.79,0.64 1.34,1.72 a 3.66,3.66 0 0 1 0.62,2.08 z"
           style="fill:#263238"
           id="elmook34yn7k9"
           class="animable" />
        <path
           d="m 173.52,311.16 c -0.12,-0.08 0.29,-0.9 0.92,-1.84 0.63,-0.94 1.22,-1.63 1.34,-1.55 0.12,0.08 -0.29,0.9 -0.91,1.84 -0.62,0.94 -1.23,1.63 -1.35,1.55 z"
           style="fill:#263238"
           id="elre9xu1318kg"
           class="animable" />
        <path
           d="m 181.41,310.1 a 6.19,6.19 0 0 1 -1.27,2.21 c -0.83,1.13 -1.59,2 -1.7,1.9 a 6.37,6.37 0 0 1 1.27,-2.21 c 0.83,-1.13 1.59,-2 1.7,-1.9 z"
           style="fill:#263238"
           id="elckomqwn1lb6"
           class="animable" />
        <path
           d="m 186.59,313.57 a 4.92,4.92 0 0 1 -0.74,2.11 c -0.54,1.11 -1.08,2 -1.21,1.89 a 4.92,4.92 0 0 1 0.74,-2.11 c 0.54,-1.11 1.08,-1.96 1.21,-1.89 z"
           style="fill:#263238"
           id="elpq7cw7h7zf"
           class="animable" />
        <path
           d="m 191.74,316.84 c 0.11,0.09 -0.47,1 -1.28,1.92 -0.81,0.92 -1.57,1.68 -1.68,1.59 -0.11,-0.09 0.46,-1 1.28,-1.92 0.82,-0.92 1.57,-1.68 1.68,-1.59 z"
           style="fill:#263238"
           id="elf3cfbrj3hhl"
           class="animable" />
        <path
           d="m 208,359.8 a 6.28,6.28 0 0 1 1.22,-7.19 17.45,17.45 0 0 0 -1.22,3.49 17.08,17.08 0 0 0 0,3.7 z"
           style="fill:#263238"
           id="el5d24lh0z94j"
           class="animable" />
        <path
           d="m 213.48,361.89 c -0.06,0 -0.32,-0.28 -0.55,-0.88 a 5.34,5.34 0 0 1 -0.3,-2.49 5.43,5.43 0 0 1 0.84,-2.37 c 0.36,-0.54 0.68,-0.78 0.73,-0.74 a 12.16,12.16 0 0 0 -1,3.16 11.78,11.78 0 0 0 0.28,3.32 z"
           style="fill:#263238"
           id="elpdg4t2tcq9"
           class="animable" />
        <path
           d="m 219.76,357.85 a 8.83,8.83 0 0 1 0.1,3 8.42,8.42 0 0 1 -0.42,3 9.15,9.15 0 0 1 -0.1,-3 8.93,8.93 0 0 1 0.42,-3 z"
           style="fill:#263238"
           id="elcfzd6prpknw"
           class="animable" />
        <path
           d="m 228.34,359.59 c 0.14,0.07 -0.49,1.4 -0.64,3.15 -0.15,1.75 0.18,3.18 0,3.22 a 6.39,6.39 0 0 1 0.61,-6.37 z"
           style="fill:#263238"
           id="el4en5vt7xckm"
           class="animable" />
        <path
           d="m 235,360.61 a 30.59,30.59 0 0 1 -0.07,3.18 27.82,27.82 0 0 1 0.07,3.21 8.73,8.73 0 0 1 0,-6.36 z"
           style="fill:#263238"
           id="el2kwx2ys3emn"
           class="animable" />
        <path
           d="m 243.23,366.78 a 29.65,29.65 0 0 1 -0.42,-3.34 25.14,25.14 0 0 1 -0.51,-3.33 7.27,7.27 0 0 1 1,3.26 7,7 0 0 1 -0.07,3.41 z"
           style="fill:#263238"
           id="ell3usmfxadu"
           class="animable" />
        <path
           d="m 251.94,366.16 c -0.15,0 0,-1.42 -0.23,-3.11 -0.23,-1.69 -0.82,-3 -0.68,-3.05 a 5.22,5.22 0 0 1 1.2,3 5.11,5.11 0 0 1 -0.29,3.16 z"
           style="fill:#263238"
           id="el69ghw27h8t6"
           class="animable" />
        <path
           d="m 260.53,364.32 c -0.15,0 -0.19,-1.43 -0.6,-3.12 -0.41,-1.69 -1,-3 -0.87,-3.05 a 5.82,5.82 0 0 1 1.38,2.93 5.71,5.71 0 0 1 0.09,3.24 z"
           style="fill:#263238"
           id="ellhchg6x9zb9"
           class="animable" />
        <path
           d="m 267.76,362.37 a 31.49,31.49 0 0 0 -0.53,-3.15 c -0.5,-1.68 -1.43,-2.81 -1.31,-2.91 a 5.91,5.91 0 0 1 1.84,6.06 z"
           style="fill:#263238"
           id="elatvaoehxekg"
           class="animable" />
        <path
           d="m 274.14,360 c -0.15,0 0,-1.52 -0.44,-3.27 -0.44,-1.75 -1.23,-3 -1.1,-3.11 a 6.67,6.67 0 0 1 1.54,6.38 z"
           style="fill:#263238"
           id="elwl74qiehtu"
           class="animable" />
        <path
           d="m 298.79,281.63 -0.27,0.05 -0.81,0.1 -3.09,0.35 c -1.35,0.15 -3,0.32 -4.91,0.47 -1.91,0.15 -4.1,0.36 -6.51,0.5 -4.83,0.34 -10.58,0.59 -17,0.73 -6.42,0.14 -13.43,0.06 -20.81,-0.23 -7.38,-0.29 -14.4,-0.83 -20.77,-1.44 -6.37,-0.61 -12.08,-1.36 -16.86,-2.09 -2.4,-0.32 -4.55,-0.71 -6.45,-1 -1.9,-0.29 -3.53,-0.6 -4.85,-0.86 l -3.06,-0.59 -0.79,-0.17 -0.27,-0.07 h 0.28 l 0.8,0.12 3.07,0.49 c 1.33,0.23 3,0.5 4.87,0.78 1.87,0.28 4.05,0.63 6.45,0.94 4.78,0.68 10.5,1.35 16.86,2 6.36,0.65 13.37,1.09 20.74,1.4 7.37,0.31 14.39,0.34 20.78,0.27 6.39,-0.07 12.14,-0.33 17,-0.62 2.41,-0.11 4.59,-0.29 6.51,-0.42 1.92,-0.13 3.56,-0.26 4.91,-0.38 l 3.1,-0.25 0.81,-0.05 z"
           style="fill:#263238"
           id="eloazazlxkgr"
           class="animable" />
        <g
           id="eliaq08aw5o3c">
          <g
             style="opacity:0.2"
             class="animable"
             id="g918">
            <path
               d="m 231.3,334.84 a 14.07,14.07 0 0 1 -5.47,-3 c -1.46,-1.52 -2.12,-4 -0.94,-5.76 a 5.09,5.09 0 0 1 4.65,-1.83 36.42,36.42 0 0 1 5.1,1.15 17.38,17.38 0 0 0 14.58,-3.49 c 2.94,-2.41 5,-5.74 7.73,-8.38 a 5.19,5.19 0 0 1 3.07,-1.72 c 2.08,-0.16 3.74,2 3.73,4.11 -0.01,2.11 -1.18,4 -2.47,5.6 a 36.67,36.67 0 0 1 -31.2,13.68"
               id="el8grticqqrfv"
               class="animable" />
          </g>
        </g>
        <g
           id="elz38b5mnej5">
          <g
             style="opacity:0.2"
             class="animable"
             id="g922">
            <path
               d="m 212.07,351.7 c 8.24,5.14 18.21,7 27.91,6.81 9.7,-0.19 19.29,-2.16 28.79,-4.15 a 4.62,4.62 0 0 0 2.4,-1 1.61,1.61 0 0 0 0.08,-2.33 67.44,67.44 0 0 1 -55.41,-1 4.59,4.59 0 0 0 -3.12,-0.7 c -1.06,0.29 -1.72,1.85 -0.83,2.5"
               id="eloifv6885hv"
               class="animable" />
          </g>
        </g>
        <path
           d="m 296.27,386.05 -46.39,9.95 -4.17,-15.92 17.17,-0.84 c 0,0 2.06,-3.35 4.45,-3.11 2.39,0.24 4.11,3.26 5.86,3.41 1.75,0.15 23.61,-3.03 23.08,6.51 z"
           style="fill:#ffbe9d"
           id="elylbxnvhct2"
           class="animable" />
        <path
           d="m 192.64,273.53 c -0.27,0.42 106.44,7.24 106.44,7.24 0,0 -8.8,-27 -42.41,-28.72 -33.61,-1.72 -50.17,-0.39 -64.03,21.48 z"
           style="fill:#ffbe9d"
           id="eldpys389m21"
           class="animable" />
        <path
           d="m 257.1,255 c 0.21,-7.08 0.56,-14.52 0.56,-14.52 0,0 9.06,-1.23 11.25,-13.06 2.09,-11.29 0.95,-37.52 0.95,-37.52 v 0 A 33.53,33.53 0 0 0 232,197.4 v 0 l -0.79,57.47 c -0.09,6.67 5.51,12.08 12.59,12.15 v 0 c 7.2,0.07 13.1,-5.33 13.3,-12.02 z"
           style="fill:#ffbe9d"
           id="els5vmabl2yh"
           class="animable" />
        <path
           d="m 257.07,221 a 11.34,11.34 0 0 1 2.65,-0.4 c 0.41,0 0.81,-0.1 0.89,-0.38 a 2.2,2.2 0 0 0 -0.25,-1.25 l -1.14,-3.23 c -1.58,-4.59 -2.71,-8.37 -2.53,-8.43 0.18,-0.06 1.62,3.61 3.2,8.21 0.38,1.13 0.74,2.21 1.09,3.24 a 2.53,2.53 0 0 1 0.17,1.65 1.06,1.06 0 0 1 -0.7,0.6 2.66,2.66 0 0 1 -0.71,0.07 9.94,9.94 0 0 1 -2.67,-0.08 z"
           style="fill:#263238"
           id="elwrz6gfznb89"
           class="animable" />
        <path
           d="M 257.66,240.43 A 29.68,29.68 0 0 1 242,235.7 c 0,0 3.6,8.29 15.41,7.54 z"
           style="fill:#eb996e"
           id="el0bivo887u2ti"
           class="animable" />
        <path
           d="m 256.27,224.92 a 2.91,2.91 0 0 0 -2.59,-1.18 2.64,2.64 0 0 0 -1.87,0.94 1.7,1.7 0 0 0 -0.18,1.95 1.94,1.94 0 0 0 2.11,0.61 6.08,6.08 0 0 0 2.11,-1.19 1.65,1.65 0 0 0 0.48,-0.47 0.56,0.56 0 0 0 0,-0.61"
           style="fill:#eb996e"
           id="elwhodk5odx1"
           class="animable" />
        <path
           d="m 252.26,222 c 0.26,0 0.22,1.78 1.69,3.09 1.47,1.31 3.36,1.17 3.37,1.42 0.01,0.25 -0.43,0.33 -1.23,0.33 a 4.44,4.44 0 0 1 -2.81,-1.09 3.87,3.87 0 0 1 -1.3,-2.58 c -0.05,-0.78 0.16,-1.17 0.28,-1.17 z"
           style="fill:#263238"
           id="elwp6ij2e52zl"
           class="animable" />
        <path
           d="m 251.91,210.68 c 0,0 -0.18,0.39 -0.72,0.75 a 4.26,4.26 0 0 1 -2.39,0.71 4.31,4.31 0 0 1 -2.39,-0.74 c -0.53,-0.37 -0.75,-0.71 -0.71,-0.76 a 7.62,7.62 0 0 0 3.1,1 7.48,7.48 0 0 0 3.11,-0.96 z"
           style="fill:#263238"
           id="elmfvl7k7r28"
           class="animable" />
        <path
           d="m 268.47,210.75 c 0,0 -0.17,0.32 -0.64,0.6 a 4.17,4.17 0 0 1 -4.12,-0.09 c -0.47,-0.3 -0.67,-0.59 -0.62,-0.63 a 9.21,9.21 0 0 0 2.68,0.7 9.1,9.1 0 0 0 2.7,-0.58 z"
           style="fill:#263238"
           id="el7hsxmqk23mh"
           class="animable" />
        <path
           d="m 252.55,204.33 c -0.12,0.43 -1.61,0.37 -3.36,0.58 -1.75,0.21 -3.18,0.59 -3.4,0.2 -0.22,-0.39 1.13,-1.51 3.22,-1.75 2.09,-0.24 3.67,0.58 3.54,0.97 z"
           style="fill:#263238"
           id="elwb1g3zr1tp9"
           class="animable" />
        <path
           d="m 268.54,205.87 c -0.26,0.36 -1.53,-0.14 -3.08,-0.5 -1.55,-0.36 -2.9,-0.53 -3,-1 -0.1,-0.47 1.45,-1 3.34,-0.55 1.89,0.45 3,1.72 2.74,2.05 z"
           style="fill:#263238"
           id="elshnrgger6x"
           class="animable" />
        <path
           d="m 272.26,188.94 c -1.92,-3 -5.58,-4.42 -9,-5.38 a 84.84,84.84 0 0 0 -10.93,-2.28 15.3,15.3 0 0 0 -6.77,0.18 c -0.26,0.09 -0.5,0.19 -0.74,0.29 v 0 a 20.3,20.3 0 0 0 -12.21,3.41 10.81,10.81 0 0 0 -3.85,3.68 v 0 a 22.33,22.33 0 0 0 -3,5.12 c -3.51,6.14 -8.15,14.7 -8.78,19.18 a 32,32 0 0 0 4,20.47 26.62,26.62 0 0 0 3.11,4.19 10.62,10.62 0 0 0 -1,15 8.21,8.21 0 0 0 -2.82,4.44 8.42,8.42 0 0 0 3.7,8.82 l 0.54,0.29 a 4.08,4.08 0 0 0 -0.46,0.47 6.7,6.7 0 0 0 -1.38,5.09 11.57,11.57 0 0 0 2,5 c 0.95,1.45 2.3,2.85 4,3 a 3.44,3.44 0 0 0 0.72,0 3.88,3.88 0 0 0 0.47,7.3 4.38,4.38 0 0 1 1.69,0.6 1.84,1.84 0 0 1 0.52,1.64 5.5,5.5 0 0 1 -0.62,1.68 2.27,2.27 0 0 0 1.9,-1.62 c 0,0.56 0,1.12 0,1.68 a 6.77,6.77 0 0 0 2.66,-3.68 8.51,8.51 0 0 0 0.37,-4.6 5.65,5.65 0 0 0 -2.62,-3.71 4.43,4.43 0 0 0 -2.11,-0.56 5.24,5.24 0 0 0 1.33,-2.4 18.1,18.1 0 0 0 -1.78,-9.59 5.29,5.29 0 0 0 -0.75,-1 7.94,7.94 0 0 0 1.74,-3.49 9.47,9.47 0 0 0 -0.88,-7.29 6.46,6.46 0 0 0 -0.44,-0.59 8.38,8.38 0 0 0 1.55,-4.08 27.5,27.5 0 0 0 0.58,-6.26 12,12 0 0 0 3.55,-4.84 c 3.65,-7.93 -0.61,-19.16 -0.61,-19.16 6.21,-6.16 7.4,-17.89 7.52,-24.82 a 15.5,15.5 0 0 0 3.93,3.86 5.64,5.64 0 0 0 3.78,1.21 2.56,2.56 0 0 0 2.31,-2.78 17,17 0 0 0 2.85,4.27 5.79,5.79 0 0 0 4.62,1.84 3.54,3.54 0 0 0 3.15,-3.45 9.94,9.94 0 0 0 3.63,3.46 4.06,4.06 0 0 0 4.69,-0.65 6.11,6.11 0 0 0 1.13,-3.65 c 0.35,-3.55 0.59,-7.33 -1.29,-10.29 z"
           style="fill:#263238"
           id="elcp1ck110oa7"
           class="animable" />
        <path
           d="m 224.32,232.2 a 1.44,1.44 0 0 1 -0.19,-0.38 5.54,5.54 0 0 1 -0.32,-1.19 8.49,8.49 0 0 1 0.65,-4.46 16.18,16.18 0 0 1 4,-5.38 49.79,49.79 0 0 0 5.62,-5.83 47.46,47.46 0 0 0 6.53,-13.11 c 0.58,-1.73 1.07,-3.16 1.43,-4.25 a 11.55,11.55 0 0 1 0.57,-1.54 9.3,9.3 0 0 1 -0.37,1.6 c -0.28,1 -0.7,2.5 -1.28,4.31 a 44.32,44.32 0 0 1 -6.47,13.31 47.5,47.5 0 0 1 -5.7,5.85 16.47,16.47 0 0 0 -4,5.18 8.74,8.74 0 0 0 -0.79,4.29 c 0.13,1.04 0.38,1.58 0.32,1.6 z"
           style="fill:#455a64"
           id="el8vszlt879"
           class="animable" />
        <path
           d="m 230.32,253.69 a 1.83,1.83 0 0 1 -0.68,-0.25 8.8,8.8 0 0 1 -1.69,-1 12,12 0 0 1 -4.59,-11.65 10.69,10.69 0 0 1 0.52,-1.92 c 0.17,-0.43 0.3,-0.66 0.33,-0.64 0.03,0.02 -0.29,1 -0.49,2.61 a 12.59,12.59 0 0 0 4.46,11.32 c 1.25,1.01 2.18,1.45 2.14,1.53 z"
           style="fill:#455a64"
           id="elffw96bo0mp"
           class="animable" />
        <path
           d="m 229.71,255.44 c 0,0.06 -0.44,0.26 -1.24,0.3 a 5.83,5.83 0 0 1 -5.21,-2.94 2.2,2.2 0 0 1 -0.39,-1.22 c 0.08,0 0.27,0.42 0.7,1 a 6.76,6.76 0 0 0 2.15,1.92 6.66,6.66 0 0 0 2.75,0.84 c 0.75,0.09 1.23,0.02 1.24,0.1 z"
           style="fill:#455a64"
           id="el734fzvkwji7"
           class="animable" />
        <path
           d="m 225.56,264.62 c 0,-0.08 0.47,-0.37 1.15,-1 a 8.13,8.13 0 0 0 2.57,-6.41 12.12,12.12 0 0 1 -0.15,-1.5 2.8,2.8 0 0 1 0.52,1.46 7.26,7.26 0 0 1 -0.45,3.73 7.14,7.14 0 0 1 -2.26,3 2.85,2.85 0 0 1 -1.38,0.72 z"
           style="fill:#455a64"
           id="elw5w09k42suq"
           class="animable" />
        <path
           d="m 230.33,265.31 c 0.06,0 0,0.39 -0.38,0.85 a 3.3,3.3 0 0 1 -1.93,1.17 3.35,3.35 0 0 1 -2.23,-0.36 c -0.51,-0.29 -0.72,-0.6 -0.67,-0.64 0.05,-0.04 0.33,0.13 0.83,0.3 a 3.61,3.61 0 0 0 2,0.18 3.74,3.74 0 0 0 1.76,-0.9 c 0.36,-0.35 0.55,-0.63 0.62,-0.6 z"
           style="fill:#455a64"
           id="elnz3apawgb3f"
           class="animable" />
        <path
           d="m 231.17,278.21 a 49.5,49.5 0 0 0 -3.13,-5.74 51,51 0 0 0 -4.24,-5 5.72,5.72 0 0 1 1.57,1.14 20.16,20.16 0 0 1 3.1,3.53 19.66,19.66 0 0 1 2.19,4.15 5.51,5.51 0 0 1 0.51,1.92 z"
           style="fill:#455a64"
           id="el9zv1tuaz92e"
           class="animable" />
        <path
           d="m 232.7,278.57 c 0.07,0.12 -0.58,0.62 -1.53,1 -0.95,0.38 -1.77,0.38 -1.79,0.24 -0.02,-0.14 0.72,-0.4 1.62,-0.72 0.9,-0.32 1.63,-0.65 1.7,-0.52 z"
           style="fill:#455a64"
           id="elp5g0l7pr4f"
           class="animable" />
        <path
           d="m 219,230.67 a 1.6,1.6 0 0 1 -0.12,-0.47 c -0.06,-0.32 -0.15,-0.78 -0.24,-1.38 a 34.29,34.29 0 0 1 -0.49,-5.13 15.92,15.92 0 0 1 1.58,-7.48 10.43,10.43 0 0 1 2.91,-3.51 21.65,21.65 0 0 1 4.21,-2.47 46.41,46.41 0 0 0 4.29,-2.16 22.11,22.11 0 0 0 3.57,-2.63 23.52,23.52 0 0 0 4.69,-5.87 29.93,29.93 0 0 0 2.56,-6.47 1.92,1.92 0 0 1 -0.06,0.48 11.9,11.9 0 0 1 -0.29,1.37 21.58,21.58 0 0 1 -1.89,4.8 23,23 0 0 1 -4.72,6.05 22.72,22.72 0 0 1 -3.63,2.71 46.12,46.12 0 0 1 -4.37,2.19 21.42,21.42 0 0 0 -4.11,2.4 10,10 0 0 0 -2.8,3.34 15.68,15.68 0 0 0 -1.64,7.25 42.75,42.75 0 0 0 0.32,5.1 l 0.14,1.39 a 1.66,1.66 0 0 1 0.09,0.49 z"
           style="fill:#455a64"
           id="el0xo2054abpg"
           class="animable" />
        <path
           d="m 254.6,192.66 c 0,0 -0.16,0.17 -0.53,0.34 a 4.34,4.34 0 0 1 -1.68,0.38 7.12,7.12 0 0 1 -5.14,-2.19 13.66,13.66 0 0 1 -2.85,-4.82 8.81,8.81 0 0 1 -0.66,-2.21 12.11,12.11 0 0 1 1,2.07 15.48,15.48 0 0 0 2.88,4.59 7.19,7.19 0 0 0 4.76,2.19 8.42,8.42 0 0 0 2.22,-0.35 z"
           style="fill:#455a64"
           id="el186nqf5v0hz"
           class="animable" />
        <path
           d="m 261.55,195.43 a 2.74,2.74 0 0 1 -1.47,0.18 6.82,6.82 0 0 1 -5.67,-4 2.6,2.6 0 0 1 -0.32,-1.45 11,11 0 0 1 0.65,1.28 7.66,7.66 0 0 0 2.26,2.56 7.48,7.48 0 0 0 3.12,1.28 9,9 0 0 1 1.43,0.15 z"
           style="fill:#455a64"
           id="el3y1gfsjrejx"
           class="animable" />
      </g>
    </g>
  </g>
  <style
     id="style824">svg#freepik_stories-meditation:not(.animated) .animable {opacity: 0;}svg#freepik_stories-meditation.animated #freepik--Carpet--inject-26 {animation: 6s Infinite  linear floating;animation-delay: 0s;}svg#freepik_stories-meditation.animated #freepik--Plants--inject-26 {animation: 6s Infinite  linear floating;animation-delay: 0s;}svg#freepik_stories-meditation.animated #freepik--Character--inject-26 {animation: 6s Infinite  linear floating;animation-delay: 0s;}            @keyframes floating {                0% {                    opacity: 1;                    transform: translateY(0px);                }                50% {                    transform: translateY(-10px);                }                100% {                    opacity: 1;                    transform: translateY(0px);                }            }        .animator-hidden { display: none; }</style>
</svg>
