<svg width="382" height="123" viewBox="0 0 382 123" fill="none" xmlns="http://www.w3.org/2000/svg">
<g filter="url(#filter0_d_3_4)">
<path d="M81.788 96.6392C78.4783 96.6392 75.6161 95.9361 73.2013 94.5298C70.8008 93.1094 68.9471 91.1349 67.6403 88.6065C66.3335 86.0639 65.68 83.1165 65.68 79.7642C65.68 76.3835 66.3335 73.429 67.6403 70.9006C68.9471 68.358 70.8008 66.3835 73.2013 64.9773C75.6161 63.5568 78.4783 62.8466 81.788 62.8466C85.0977 62.8466 87.9528 63.5568 90.3533 64.9773C92.7681 66.3835 94.6289 68.358 95.9357 70.9006C97.2425 73.429 97.896 76.3835 97.896 79.7642C97.896 83.1165 97.2425 86.0639 95.9357 88.6065C94.6289 91.1349 92.7681 93.1094 90.3533 94.5298C87.9528 95.9361 85.0977 96.6392 81.788 96.6392ZM81.8306 89.608C83.3363 89.608 84.5934 89.1818 85.6019 88.3295C86.6104 87.4631 87.3704 86.2841 87.8817 84.7926C88.4073 83.3011 88.6701 81.6037 88.6701 79.7003C88.6701 77.7969 88.4073 76.0994 87.8817 74.608C87.3704 73.1165 86.6104 71.9375 85.6019 71.071C84.5934 70.2045 83.3363 69.7713 81.8306 69.7713C80.3107 69.7713 79.0323 70.2045 77.9954 71.071C76.9727 71.9375 76.1985 73.1165 75.6729 74.608C75.1616 76.0994 74.9059 77.7969 74.9059 79.7003C74.9059 81.6037 75.1616 83.3011 75.6729 84.7926C76.1985 86.2841 76.9727 87.4631 77.9954 88.3295C79.0323 89.1818 80.3107 89.608 81.8306 89.608ZM118.542 108.955C115.602 108.955 113.081 108.55 110.978 107.74C108.89 106.945 107.228 105.858 105.993 104.48C104.757 103.102 103.954 101.554 103.585 99.8352L111.98 98.706C112.235 99.3594 112.64 99.9702 113.194 100.538C113.748 101.107 114.48 101.561 115.389 101.902C116.312 102.257 117.434 102.435 118.755 102.435C120.73 102.435 122.356 101.952 123.635 100.986C124.927 100.034 125.574 98.4361 125.574 96.1918V90.2045H125.19C124.792 91.1136 124.196 91.973 123.4 92.7827C122.605 93.5923 121.582 94.2528 120.332 94.7642C119.082 95.2756 117.591 95.5312 115.858 95.5312C113.4 95.5312 111.163 94.9631 109.146 93.8267C107.143 92.6761 105.545 90.9219 104.352 88.5639C103.173 86.1918 102.583 83.1946 102.583 79.5724C102.583 75.8651 103.187 72.7685 104.395 70.2827C105.602 67.7969 107.207 65.9361 109.21 64.7003C111.227 63.4645 113.436 62.8466 115.836 62.8466C117.669 62.8466 119.203 63.1591 120.439 63.7841C121.674 64.3949 122.669 65.1619 123.422 66.0852C124.189 66.9943 124.778 67.8892 125.19 68.7699H125.531V63.2727H134.544V96.3196C134.544 99.1037 133.862 101.433 132.498 103.308C131.135 105.183 129.245 106.589 126.831 107.527C124.43 108.479 121.667 108.955 118.542 108.955ZM118.734 88.7131C120.197 88.7131 121.433 88.3509 122.441 87.6264C123.464 86.8878 124.245 85.8366 124.785 84.473C125.339 83.0952 125.616 81.4474 125.616 79.5298C125.616 77.6122 125.346 75.9503 124.806 74.544C124.267 73.1236 123.485 72.0227 122.463 71.2415C121.44 70.4602 120.197 70.0696 118.734 70.0696C117.243 70.0696 115.985 70.4744 114.963 71.2841C113.94 72.0795 113.166 73.1875 112.64 74.608C112.115 76.0284 111.852 77.669 111.852 79.5298C111.852 81.419 112.115 83.0526 112.64 84.4304C113.18 85.794 113.954 86.8523 114.963 87.6051C115.985 88.3437 117.243 88.7131 118.734 88.7131ZM151.099 96.6179C149.011 96.6179 147.15 96.2557 145.517 95.5312C143.883 94.7926 142.591 93.706 141.639 92.2713C140.701 90.8224 140.233 89.0185 140.233 86.8594C140.233 85.0412 140.566 83.5142 141.234 82.2784C141.902 81.0426 142.811 80.0483 143.961 79.2955C145.112 78.5426 146.419 77.9744 147.882 77.5909C149.359 77.2074 150.907 76.9375 152.527 76.7812C154.43 76.5824 155.964 76.3977 157.129 76.2273C158.294 76.0426 159.139 75.7727 159.664 75.4176C160.19 75.0625 160.453 74.5369 160.453 73.8409V73.7131C160.453 72.3636 160.027 71.3196 159.174 70.581C158.336 69.8423 157.143 69.473 155.595 69.473C153.961 69.473 152.662 69.8352 151.696 70.5597C150.73 71.2699 150.091 72.1648 149.778 73.2443L141.383 72.5625C141.809 70.5739 142.647 68.8551 143.897 67.4062C145.147 65.9432 146.76 64.821 148.734 64.0398C150.723 63.2443 153.024 62.8466 155.637 62.8466C157.456 62.8466 159.196 63.0597 160.858 63.4858C162.534 63.9119 164.018 64.5724 165.311 65.4673C166.618 66.3622 167.647 67.5128 168.4 68.919C169.153 70.3111 169.529 71.9801 169.529 73.9261V96H160.922V91.4616H160.666C160.14 92.4844 159.437 93.3864 158.556 94.1676C157.676 94.9347 156.618 95.5384 155.382 95.9787C154.146 96.4048 152.718 96.6179 151.099 96.6179ZM153.699 90.3537C155.034 90.3537 156.213 90.0909 157.235 89.5653C158.258 89.0256 159.061 88.3011 159.643 87.392C160.225 86.483 160.517 85.4531 160.517 84.3026V80.8295C160.233 81.0142 159.842 81.1847 159.345 81.3409C158.862 81.483 158.315 81.6179 157.704 81.7457C157.093 81.8594 156.483 81.9659 155.872 82.0653C155.261 82.1506 154.707 82.2287 154.21 82.2997C153.145 82.456 152.214 82.7045 151.419 83.0455C150.623 83.3864 150.005 83.848 149.565 84.4304C149.125 84.9986 148.904 85.7088 148.904 86.5611C148.904 87.7969 149.352 88.7415 150.247 89.3949C151.156 90.0341 152.306 90.3537 153.699 90.3537ZM214.3 64.9134C214.13 63.1946 213.398 61.8594 212.106 60.9077C210.813 59.956 209.059 59.4801 206.843 59.4801C205.337 59.4801 204.066 59.6932 203.029 60.1193C201.992 60.5312 201.197 61.1065 200.643 61.8452C200.103 62.5838 199.833 63.4219 199.833 64.3594C199.805 65.1406 199.968 65.8224 200.323 66.4048C200.692 66.9872 201.197 67.4915 201.836 67.9176C202.475 68.3295 203.214 68.6918 204.052 69.0043C204.89 69.3026 205.785 69.5582 206.737 69.7713L210.657 70.7088C212.56 71.1349 214.308 71.7031 215.898 72.4134C217.489 73.1236 218.867 73.9972 220.032 75.0341C221.197 76.071 222.099 77.2926 222.738 78.6989C223.391 80.1051 223.725 81.7173 223.739 83.5355C223.725 86.206 223.043 88.5213 221.694 90.4815C220.359 92.4276 218.427 93.9403 215.898 95.0199C213.384 96.0852 210.352 96.6179 206.8 96.6179C203.278 96.6179 200.21 96.0781 197.596 94.9986C194.996 93.919 192.965 92.321 191.502 90.2045C190.053 88.0739 189.293 85.4389 189.222 82.2997H198.15C198.249 83.7628 198.668 84.9844 199.407 85.9645C200.16 86.9304 201.161 87.6619 202.411 88.1591C203.675 88.642 205.103 88.8835 206.694 88.8835C208.256 88.8835 209.613 88.6562 210.763 88.2017C211.928 87.7472 212.83 87.1151 213.469 86.3054C214.109 85.4957 214.428 84.5653 214.428 83.5142C214.428 82.5341 214.137 81.7102 213.555 81.0426C212.987 80.375 212.148 79.8068 211.04 79.3381C209.947 78.8693 208.604 78.4432 207.013 78.0597L202.262 76.8665C198.583 75.9716 195.678 74.5724 193.548 72.669C191.417 70.7656 190.359 68.2017 190.373 64.9773C190.359 62.3352 191.062 60.027 192.482 58.0526C193.917 56.0781 195.884 54.5369 198.384 53.429C200.884 52.321 203.725 51.767 206.907 51.767C210.146 51.767 212.972 52.321 215.387 53.429C217.816 54.5369 219.705 56.0781 221.055 58.0526C222.404 60.027 223.1 62.3139 223.143 64.9134H214.3ZM229.775 108.273V63.2727H238.723V68.7699H239.128C239.526 67.8892 240.101 66.9943 240.854 66.0852C241.621 65.1619 242.615 64.3949 243.837 63.7841C245.073 63.1591 246.607 62.8466 248.439 62.8466C250.826 62.8466 253.027 63.4716 255.044 64.7216C257.061 65.9574 258.674 67.8253 259.881 70.3253C261.088 72.8111 261.692 75.929 261.692 79.679C261.692 83.3295 261.103 86.4119 259.924 88.9261C258.759 91.4261 257.168 93.3224 255.151 94.6151C253.148 95.8935 250.904 96.5327 248.418 96.5327C246.657 96.5327 245.158 96.2415 243.922 95.6591C242.701 95.0767 241.699 94.3452 240.918 93.4645C240.137 92.5696 239.54 91.6676 239.128 90.7585H238.851V108.273H229.775ZM238.659 79.6364C238.659 81.5824 238.929 83.2798 239.469 84.7287C240.009 86.1776 240.79 87.3068 241.813 88.1165C242.836 88.9119 244.078 89.3097 245.542 89.3097C247.019 89.3097 248.269 88.9048 249.292 88.0952C250.314 87.2713 251.088 86.1349 251.614 84.6861C252.154 83.223 252.424 81.5398 252.424 79.6364C252.424 77.7472 252.161 76.0852 251.635 74.6506C251.11 73.2159 250.336 72.0937 249.313 71.2841C248.29 70.4744 247.033 70.0696 245.542 70.0696C244.064 70.0696 242.814 70.4602 241.792 71.2415C240.783 72.0227 240.009 73.1307 239.469 74.5653C238.929 76 238.659 77.6903 238.659 79.6364ZM277.076 96.6179C274.988 96.6179 273.127 96.2557 271.493 95.5312C269.86 94.7926 268.567 93.706 267.615 92.2713C266.678 90.8224 266.209 89.0185 266.209 86.8594C266.209 85.0412 266.543 83.5142 267.211 82.2784C267.878 81.0426 268.787 80.0483 269.938 79.2955C271.088 78.5426 272.395 77.9744 273.858 77.5909C275.336 77.2074 276.884 76.9375 278.503 76.7812C280.407 76.5824 281.941 76.3977 283.105 76.2273C284.27 76.0426 285.115 75.7727 285.641 75.4176C286.167 75.0625 286.429 74.5369 286.429 73.8409V73.7131C286.429 72.3636 286.003 71.3196 285.151 70.581C284.313 69.8423 283.12 69.473 281.571 69.473C279.938 69.473 278.638 69.8352 277.672 70.5597C276.706 71.2699 276.067 72.1648 275.755 73.2443L267.36 72.5625C267.786 70.5739 268.624 68.8551 269.874 67.4062C271.124 65.9432 272.736 64.821 274.711 64.0398C276.699 63.2443 279 62.8466 281.614 62.8466C283.432 62.8466 285.172 63.0597 286.834 63.4858C288.51 63.9119 289.995 64.5724 291.287 65.4673C292.594 66.3622 293.624 67.5128 294.377 68.919C295.13 70.3111 295.506 71.9801 295.506 73.9261V96H286.898V91.4616H286.642C286.117 92.4844 285.414 93.3864 284.533 94.1676C283.652 94.9347 282.594 95.5384 281.358 95.9787C280.123 96.4048 278.695 96.6179 277.076 96.6179ZM279.675 90.3537C281.01 90.3537 282.189 90.0909 283.212 89.5653C284.235 89.0256 285.037 88.3011 285.62 87.392C286.202 86.483 286.493 85.4531 286.493 84.3026V80.8295C286.209 81.0142 285.819 81.1847 285.321 81.3409C284.838 81.483 284.292 81.6179 283.681 81.7457C283.07 81.8594 282.459 81.9659 281.848 82.0653C281.238 82.1506 280.684 82.2287 280.186 82.2997C279.121 82.456 278.191 82.7045 277.395 83.0455C276.6 83.3864 275.982 83.848 275.542 84.4304C275.101 84.9986 274.881 85.7088 274.881 86.5611C274.881 87.7969 275.328 88.7415 276.223 89.3949C277.132 90.0341 278.283 90.3537 279.675 90.3537ZM317.335 96.6392C313.983 96.6392 311.099 95.929 308.684 94.5085C306.284 93.0739 304.437 91.0852 303.145 88.5426C301.866 86 301.227 83.0739 301.227 79.7642C301.227 76.4119 301.873 73.4716 303.166 70.9432C304.473 68.4006 306.326 66.419 308.727 64.9986C311.127 63.5639 313.983 62.8466 317.292 62.8466C320.147 62.8466 322.647 63.3651 324.792 64.402C326.937 65.4389 328.635 66.8949 329.885 68.7699C331.135 70.6449 331.824 72.8466 331.951 75.375H323.386C323.145 73.7415 322.505 72.4276 321.468 71.4332C320.446 70.4247 319.103 69.9205 317.441 69.9205C316.035 69.9205 314.806 70.304 313.755 71.071C312.718 71.8239 311.909 72.9247 311.326 74.3736C310.744 75.8224 310.453 77.5767 310.453 79.6364C310.453 81.7244 310.737 83.5 311.305 84.9631C311.887 86.4261 312.704 87.5412 313.755 88.3082C314.806 89.0753 316.035 89.4588 317.441 89.4588C318.478 89.4588 319.409 89.2457 320.233 88.8196C321.071 88.3935 321.76 87.7756 322.299 86.9659C322.853 86.142 323.216 85.1548 323.386 84.0043H331.951C331.809 86.5043 331.127 88.706 329.906 90.6094C328.699 92.4986 327.029 93.9759 324.899 95.0412C322.768 96.1065 320.247 96.6392 317.335 96.6392ZM352.678 96.6392C349.311 96.6392 346.413 95.9574 343.984 94.5938C341.57 93.2159 339.709 91.2699 338.402 88.7557C337.095 86.2273 336.442 83.2372 336.442 79.7855C336.442 76.419 337.095 73.4645 338.402 70.9219C339.709 68.3793 341.548 66.3977 343.92 64.9773C346.307 63.5568 349.105 62.8466 352.315 62.8466C354.474 62.8466 356.484 63.1946 358.345 63.8906C360.22 64.5724 361.854 65.6023 363.246 66.9801C364.652 68.358 365.746 70.0909 366.527 72.179C367.308 74.2528 367.699 76.6818 367.699 79.4659V81.9588H340.064V76.3338H359.155C359.155 75.027 358.871 73.8693 358.303 72.8608C357.734 71.8523 356.946 71.0639 355.938 70.4957C354.943 69.9134 353.786 69.6222 352.464 69.6222C351.087 69.6222 349.865 69.9418 348.8 70.581C347.749 71.206 346.925 72.0511 346.328 73.1165C345.732 74.1676 345.426 75.3395 345.412 76.6321V81.9801C345.412 83.5994 345.71 84.9986 346.307 86.1776C346.918 87.3565 347.777 88.2656 348.885 88.9048C349.993 89.544 351.307 89.8636 352.827 89.8636C353.835 89.8636 354.759 89.7216 355.597 89.4375C356.435 89.1534 357.152 88.7273 357.749 88.1591C358.345 87.5909 358.8 86.8949 359.112 86.071L367.507 86.625C367.081 88.642 366.207 90.4034 364.886 91.9091C363.58 93.4006 361.889 94.5653 359.815 95.4034C357.756 96.2273 355.376 96.6392 352.678 96.6392Z" fill="#E46EF0"/>
<path d="M94.679 52.4794C92.282 52.4794 90.2045 51.9521 88.4467 50.8974C86.6889 49.8427 85.3253 48.3672 84.3558 46.4709C83.397 44.5746 82.9176 42.3587 82.9176 39.8232C82.9176 37.2876 83.397 35.0664 84.3558 33.1594C85.3253 31.2525 86.6889 29.7717 88.4467 28.717C90.2045 27.6623 92.282 27.1349 94.679 27.1349C97.076 27.1349 99.1534 27.6623 100.911 28.717C102.669 29.7717 104.027 31.2525 104.986 33.1594C105.956 35.0664 106.44 37.2876 106.44 39.8232C106.44 42.3587 105.956 44.5746 104.986 46.4709C104.027 48.3672 102.669 49.8427 100.911 50.8974C99.1534 51.9521 97.076 52.4794 94.679 52.4794ZM94.7109 47.8452C96.0107 47.8452 97.0973 47.4883 97.9709 46.7745C98.8445 46.0501 99.4943 45.0806 99.9205 43.8661C100.357 42.6516 100.576 41.2987 100.576 39.8072C100.576 38.305 100.357 36.9467 99.9205 35.7322C99.4943 34.5071 98.8445 33.5323 97.9709 32.8079C97.0973 32.0835 96.0107 31.7212 94.7109 31.7212C93.3793 31.7212 92.2713 32.0835 91.3871 32.8079C90.5135 33.5323 89.8583 34.5071 89.4215 35.7322C88.9954 36.9467 88.7823 38.305 88.7823 39.8072C88.7823 41.2987 88.9954 42.6516 89.4215 43.8661C89.8583 45.0806 90.5135 46.0501 91.3871 46.7745C92.2713 47.4883 93.3793 47.8452 94.7109 47.8452ZM126.995 41.6768V27.4545H132.78V52H127.171V47.6374H126.915C126.361 49.0117 125.45 50.1357 124.182 51.0092C122.925 51.8828 121.375 52.3196 119.532 52.3196C117.923 52.3196 116.501 51.9627 115.265 51.2489C114.04 50.5245 113.081 49.4751 112.389 48.1009C111.696 46.7159 111.35 45.0433 111.35 43.0831V27.4545H117.135V42.1882C117.135 43.7436 117.561 44.9794 118.413 45.8956C119.266 46.8118 120.384 47.2699 121.769 47.2699C122.622 47.2699 123.447 47.0621 124.246 46.6467C125.045 46.2312 125.7 45.6133 126.212 44.793C126.734 43.962 126.995 42.9233 126.995 41.6768ZM138.728 52V27.4545H144.337V31.5455H144.593C145.04 30.1286 145.807 29.0366 146.894 28.2695C147.991 27.4918 149.243 27.103 150.649 27.103C150.969 27.103 151.326 27.119 151.72 27.1509C152.125 27.1722 152.46 27.2095 152.727 27.2628V32.5842C152.482 32.4989 152.093 32.4244 151.56 32.3604C151.038 32.2859 150.532 32.2486 150.042 32.2486C148.987 32.2486 148.039 32.4776 147.198 32.9357C146.367 33.3832 145.711 34.0064 145.232 34.8054C144.753 35.6044 144.513 36.5259 144.513 37.57V52H138.728Z" fill="#F0D36E"/>
<path d="M6.59872 24.2727H23.8217L40.4055 55.5938H41.1158L57.6996 24.2727H74.9226L48.3956 71.2898V97H33.1257V71.2898L6.59872 24.2727Z" fill="#E46EF0"/>
</g>
<defs>
<filter id="filter0_d_3_4" x="0.598694" y="18.2727" width="381.1" height="104.682" filterUnits="userSpaceOnUse" color-interpolation-filters="sRGB">
<feFlood flood-opacity="0" result="BackgroundImageFix"/>
<feColorMatrix in="SourceAlpha" type="matrix" values="0 0 0 0 0 0 0 0 0 0 0 0 0 0 0 0 0 0 127 0" result="hardAlpha"/>
<feOffset dx="4" dy="4"/>
<feGaussianBlur stdDeviation="5"/>
<feComposite in2="hardAlpha" operator="out"/>
<feColorMatrix type="matrix" values="0 0 0 0 0 0 0 0 0 0 0 0 0 0 0 0 0 0 0.25 0"/>
<feBlend mode="normal" in2="BackgroundImageFix" result="effect1_dropShadow_3_4"/>
<feBlend mode="normal" in="SourceGraphic" in2="effect1_dropShadow_3_4" result="shape"/>
</filter>
</defs>
</svg>
